<svg xmlns="http://www.w3.org/2000/svg" version="1.1" xmlns:xlink="http://www.w3.org/1999/xlink" width="1000" height="1000"><metadata><rdf:RDF xmlns:rdf="http://www.w3.org/1999/02/22-rdf-syntax-ns#" xmlns:dc="http://purl.org/dc/elements/1.1/"><rdf:Description><dc:creator>RealFaviconGenerator</dc:creator><dc:source>https://realfavicongenerator.net</dc:source></rdf:Description></rdf:RDF></metadata><style>
    #light-icon {
      display: inline;
    }
    #dark-icon {
      display: none;
    }

    @media (prefers-color-scheme: dark) {
      #light-icon {
        display: none;
      }
      #dark-icon {
        display: inline;
      }
    }
  </style><g id="light-icon"><svg xmlns="http://www.w3.org/2000/svg" version="1.1" xmlns:xlink="http://www.w3.org/1999/xlink" width="1000" height="1000"><g><g transform="matrix(1.3674839662504958,0,0,1.3674839662504958,75.23213040327096,-5.684341886080802e-14)"><svg xmlns="http://www.w3.org/2000/svg" id="Layer_1" viewBox="0 0 621.24 731.27" width="621.24" height="731.27"><defs><style>.cls-1{fill:#2bacbb;}.cls-2{fill:#043057;}.cls-3{fill:#fdfdfd;}</style></defs><path class="cls-2" d="M528.12,441.59l-.11,267.44c0,13.53-10.68,22.25-23.52,22.24l-390.69-.21c-11.51,0-20.55-10.82-20.56-21.99l-.14-267.46,148.71-.05c.08,17.26,12.46,30.41,29.98,31.95l73.81.12c18.84.56,33.43-13.46,34.15-32.07l148.36.02ZM320.16,682.54c5.06,0,6.61-3.87,7.04-7.69l1.72-15.18,17.95-7.66,12.2,9.82c3.71,2.99,7.61,3.11,10.97-.27l12.4-12.5c2.87-2.89,2.62-6.67.11-9.65l-10.25-12.16c3.09-6.26,5.74-12.09,7.57-18.87l16.72-1.39c4.01-.33,6.36-2.65,6.35-6.71l-.04-19.04c0-2.33-.82-4.24-2.28-5.39-1.26-.99-2.94-1.04-4.92-1.22l-15.76-1.41c-1.74-6.64-4.12-12.23-7.67-18.24l9.99-12.12c2.73-3.31,3.26-7.14.09-10.3l-13.45-13.4c-2.68-2.68-6.27-1.86-8.93.36l-12.33,10.26-15.25-7.64c-6.09-3.05.33-23.5-12.92-23.39l-18.22.15c-2.32.02-5.9,1.21-6.17,3.73l-2,18.67-19.45,8.53-14.2-11.28c-2.32-1.84-5.55-1.07-7.51.92l-13.41,13.62c-2.12,2.15-2.65,5.66-.66,8.03l11.14,13.3c-3.25,6.08-5.46,12.09-7.5,18.79l-16.59,1.41c-3.96.34-6.54,2.48-6.51,6.65l.12,19.01c.01,2.23.86,4.33,2.22,5.44,1.2.99,3.03,1.15,4.96,1.32l15.87,1.38c1.85,6.68,4.33,12.55,7.6,18.75l-9.89,11.69c-2.78,3.28-3.76,7.06-.48,10.37l12.39,12.52c3.13,3.16,7.12,3.45,10.57.53l12.15-10.29,19.36,7.8,1.31,16.53c.27,3.37,2.55,6.21,6.15,6.22l19.47.02Z"></path><path class="cls-2" d="M362.38,423.2l-.35,16.08c-.19,9.04-7.19,15.97-16.37,15.96l-70.93-.07c-8.76,0-15.29-6.9-15.5-15.31l-.41-16.68-210.93-.13c-5.25,0-10.12-1.37-14.13-3.88l-21.52-13.46C4.91,401.13-.04,394.17,0,385.18l.3-59.07c.02-4.63,2.55-8.84,6.23-10.95l20.45,10.9c6.71,3.58,13.73,7.79,22.13,7.79l520.32.11c10.9,0,18.61-3.03,27.77-8.29l17.47-10.04c4.13.48,6.42,6.76,6.43,10.63l.13,59.04c.01,6.15-1.83,12.96-7.21,16.51l-25.2,16.63c-4.64,3.06-10.23,4.58-16.33,4.59l-210.12.17Z"></path><path class="cls-2" d="M435.95,252.33c-3.5,6.52-5.78,11.54-3.12,18.98,2.1,5.87,7.08,10.74,13.29,13.7,17.55,8.38,38.21,9.04,56.53,2.43,5.98-2.16,11.22-5.33,15.12-9.96,5.35-6.36,4.92-14.76-.67-20.67-3.74-3.95-8.16-6.44-13.8-8.78,2.8-11.75,2.67-22.66,0-35.28l36.49-.27c10.68-.08,21.58,5.22,27.23,14.42l42.53,69.33-33.23,18.84-528.12-.05c-12.71-5.72-24.22-11.52-36.61-18.69l43.08-70.1c6.22-10.12,18.59-14.09,29.92-13.82l26.32.64c12.72.31-.46,17.83,3.73,35.99-4.21,2.47-7.82,4.79-10.89,8.25-6.62,7.48-4.72,17.75,3.31,23.82,18.31,13.83,51.05,14.15,70.68,2.37,6.26-3.76,10.38-8.91,11.53-16.04s-.83-12.85-6.83-17.12c-.52-3.13-.27-6.62.65-9.84l8.07-28.47,228.35-.08c3.34,0,8.78.36,9.72,3.43l6.83,22.22c1.15,3.75.37,10.63-.09,14.74Z"></path><path class="cls-2" d="M75.31,718.21c0,2.6-2.46,1.54-3.43.78l-48.91-37.92c-8.02-6.21-13.66-13.18-13.66-24.02l.04-231.36,16.01,9.93c6.19,3.46,12.99,5.87,20.29,5.91l29.66.15v276.53Z"></path><path class="cls-3" d="M320.16,682.54l-19.47-.02c-3.6,0-5.88-2.85-6.15-6.22l-1.31-16.53-19.36-7.8-12.15,10.29c-3.45,2.92-7.44,2.63-10.57-.53l-12.39-12.52c-3.28-3.32-2.3-7.09.48-10.37l9.89-11.69c-3.28-6.2-5.75-12.06-7.6-18.75l-15.87-1.38c-1.93-.17-3.76-.33-4.96-1.32-1.35-1.12-2.2-3.21-2.22-5.44l-.12-19.01c-.03-4.17,2.55-6.31,6.51-6.65l16.59-1.41c2.05-6.7,4.25-12.71,7.5-18.79l-11.14-13.3c-1.99-2.38-1.46-5.88.66-8.03l13.41-13.62c1.96-1.99,5.2-2.76,7.51-.92l14.2,11.28,19.45-8.53,2-18.67c.27-2.52,3.85-3.71,6.17-3.73l18.22-.15c13.25-.11,6.83,20.34,12.92,23.39l15.25,7.64,12.33-10.26c2.66-2.22,6.25-3.04,8.93-.36l13.45,13.4c3.17,3.16,2.64,7-.09,10.3l-9.99,12.12c3.55,6.02,5.93,11.6,7.67,18.24l15.76,1.41c1.98.18,3.66.23,4.92,1.22,1.46,1.15,2.27,3.06,2.28,5.39l.04,19.04c0,4.06-2.34,6.38-6.35,6.71l-16.72,1.39c-1.83,6.78-4.48,12.61-7.57,18.87l10.25,12.16c2.51,2.98,2.76,6.76-.11,9.65l-12.4,12.5c-3.36,3.38-7.25,3.26-10.97.27l-12.2-9.82-17.95,7.66-1.72,15.18c-.43,3.82-1.98,7.7-7.04,7.69ZM353.07,590.89c0-23.45-19.01-42.46-42.46-42.46s-42.46,19.01-42.46,42.46,19.01,42.46,42.46,42.46,42.46-19.01,42.46-42.46Z"></path><circle class="cls-2" cx="310.61" cy="590.89" r="42.46"></circle><path class="cls-2" d="M545.37,720.2l-.07-278.44,31.42-.34c6.56-.07,13.19-2.08,18.58-5.52l16.66-10.62.04,232.79c-.77,8.97-4.28,16.42-11.59,21l-55.04,41.13Z"></path><path class="cls-1" d="M244.61,62.64c-11.29,7.84-23.49,10.5-36.69,10.91-13.86.43-26.67,2.79-39.21,9.13,2.78-10.48,7.18-19.11,13.68-26.64,12.54-15.31,31.98-20.67,50.68-13.91l25.33,10.94-13.78,9.57Z"></path><path class="cls-1" d="M168.33,131.38c-7.41,3.32-13.89,6.17-20.43,10.5-1.87-22.88,6.52-42.91,26.99-51.36,9.31-3.84,18.94-5.47,28.92-6.88l13.1-1.86-9.85,18.84c-5.26,10.05-12.11,18.85-22.52,23.51l-16.21,7.26Z"></path><path class="cls-1" d="M342.31,48.98c-10.25-1.36-20.04-4.36-26.86-11.49l-17.56-18.35c-5.55-5.43-11.06-9.44-18.8-13.4,25.79-11.65,56.37-5.83,68.18,19.93l11.71,25.53-16.67-2.22Z"></path><path class="cls-1" d="M439.59,172.37c-8.31-20.73-10.64-37.01.55-55.72,6.39-10.9,11.27-21.78,13.5-34.85,19.26,21.85,24.47,46.09,5.01,68.55l-19.07,22.01Z"></path><path class="cls-1" d="M400.91,78.05l-14.78-9.3c-9.21-5.7-15.97-13.81-19.92-23.96l-9.67-23.32c-2.45-5.91-6.8-10.12-10.98-15,20.27.3,39.76,5.28,50,22.85,5.13,8.81,6.58,18.74,6.45,28.91l-1.09,19.81Z"></path><path class="cls-1" d="M427.75,120.87l-11.58-18.04c-5.86-9.13-7.23-19.66-6.07-30.48l1.26-13.95c.76-8.38-.21-15.86-2.93-24.7,23.94,9.23,39.75,29.01,33.6,54.11l-6.45,17.35-7.82,15.71Z"></path><path class="cls-1" d="M292.95,47.04c-13.06,3.13-25.46.7-36.94-5.1l-17.29-8.73c-6.62-3.34-13.48-4.08-21.53-4.14,19.69-19.8,49.77-25.88,69.5-6.75l21.69,21.03-15.44,3.7Z"></path><path class="cls-1" d="M137.77,199.9c-2.88-5.72-1.63-11.66-1.23-17.68.87-13.19,7.52-24.49,18.56-31.55l15.37-8.53c6.66-3.69,13.35-6.21,19.86-10.16l-2.8,25.2c-1.39,12.48-10.64,21.42-21.65,27.33-9.22,4.84-18.31,8.76-28.11,15.39Z"></path><path class="cls-1" d="M128.2,256.37c-3.5-12.99-1.64-27.03,6.26-38.28,11.92-14.17,30.04-17.99,44.75-29.92.13,27.18-2.5,45.36-28.86,57.78-7.29,3.29-13.9,5.64-22.15,10.43Z"></path><path class="cls-1" d="M447.97,226.61c-8.83-21.03-10.78-39.77,5.04-56.13,8.02-8.3,15.98-16.06,21.59-26.83l6.6,17.84c4.23,15.8-.7,30.7-12.28,42.15-7.44,7.36-15,14.15-20.95,22.96Z"></path><path class="cls-1" d="M458.18,272.26c-2.94,2.32-7.94-3.86-6.95-7.21-4.98-15.59-.11-30.79,11.71-41.59,7.4-7.51,14.93-14.12,21.08-23.5,10.08,19.77,11.06,43.14-6.62,57.11l-19.23,15.19Z"></path><path class="cls-1" d="M167.77,271.13c-12.91,6.8-27.98,7.42-41.77,2.5,5.24-5.51,11.31-7.75,17.39-10.64,8.65-3.5,16.4-7.29,24.79-13.41,1.2,7.06.78,13.68-.41,21.55Z"></path><path class="cls-1" d="M497.29,272.5c-7.36,3.91-15.53,4.95-23.74,3.87,7.18-5.73,13.23-9.91,18.86-16.64l4.88,12.77Z"></path></svg></g></g></svg></g><g id="dark-icon"><svg xmlns="http://www.w3.org/2000/svg" version="1.1" xmlns:xlink="http://www.w3.org/1999/xlink" width="1000" height="1000"><g><g transform="matrix(1.3674839662504958,0,0,1.3674839662504958,75.23213040327096,-5.684341886080802e-14)"><svg xmlns="http://www.w3.org/2000/svg" id="Layer_1" viewBox="0 0 621.24 731.27" width="621.24" height="731.27"><defs><style>.cls-1{fill:#020202;}.cls-2{fill:#d45344;}.cls-3{fill:#fbcfa8;}</style></defs><path class="cls-3" d="M528.12,441.59l-.11,267.44c0,13.53-10.68,22.25-23.52,22.24l-390.69-.21c-11.51,0-20.55-10.82-20.56-21.99l-.14-267.46,148.71-.05c.08,17.26,12.46,30.41,29.98,31.95l73.81.12c18.84.56,33.43-13.46,34.15-32.07l148.36.02h0ZM320.16,682.54c5.06,0,6.61-3.87,7.04-7.69l1.72-15.18,17.95-7.66,12.2,9.82c3.71,2.99,7.61,3.11,10.97-.27l12.4-12.5c2.87-2.89,2.62-6.67.11-9.65l-10.25-12.16c3.09-6.26,5.74-12.09,7.57-18.87l16.72-1.39c4.01-.33,6.36-2.65,6.35-6.71l-.04-19.04c0-2.33-.82-4.24-2.28-5.39-1.26-.99-2.94-1.04-4.92-1.22l-15.76-1.41c-1.74-6.64-4.12-12.23-7.67-18.24l9.99-12.12c2.73-3.31,3.26-7.14.09-10.3l-13.45-13.4c-2.68-2.68-6.27-1.86-8.93.36l-12.33,10.26-15.25-7.64c-6.09-3.05.33-23.5-12.92-23.39l-18.22.15c-2.32.02-5.9,1.21-6.17,3.73l-2,18.67-19.45,8.53-14.2-11.28c-2.32-1.84-5.55-1.07-7.51.92l-13.41,13.62c-2.12,2.15-2.65,5.66-.66,8.03l11.14,13.3c-3.25,6.08-5.46,12.09-7.5,18.79l-16.59,1.41c-3.96.34-6.54,2.48-6.51,6.65l.12,19.01c0,2.23.86,4.33,2.22,5.44,1.2.99,3.03,1.15,4.96,1.32l15.87,1.38c1.85,6.68,4.33,12.55,7.6,18.75l-9.89,11.69c-2.78,3.28-3.76,7.06-.48,10.37l12.39,12.52c3.13,3.16,7.12,3.45,10.57.53l12.15-10.29,19.36,7.8,1.31,16.53c.27,3.37,2.55,6.21,6.15,6.22l19.47.02-.03-.02Z"></path><path class="cls-3" d="M362.38,423.2l-.35,16.08c-.19,9.04-7.19,15.97-16.37,15.96l-70.93-.07c-8.76,0-15.29-6.9-15.5-15.31l-.41-16.68-210.93-.13c-5.25,0-10.12-1.37-14.13-3.88l-21.52-13.46c-7.33-4.58-12.28-11.54-12.24-20.53l.3-59.07c.02-4.63,2.55-8.84,6.23-10.95l20.45,10.9c6.71,3.58,13.73,7.79,22.13,7.79l520.32.11c10.9,0,18.61-3.03,27.77-8.29l17.47-10.04c4.13.48,6.42,6.76,6.43,10.63l.13,59.04c.01,6.15-1.83,12.96-7.21,16.51l-25.2,16.63c-4.64,3.06-10.23,4.58-16.33,4.59l-210.12.17h.01Z"></path><path class="cls-3" d="M435.95,252.33c-3.5,6.52-5.78,11.54-3.12,18.98,2.1,5.87,7.08,10.74,13.29,13.7,17.55,8.38,38.21,9.04,56.53,2.43,5.98-2.16,11.22-5.33,15.12-9.96,5.35-6.36,4.92-14.76-.67-20.67-3.74-3.95-8.16-6.44-13.8-8.78,2.8-11.75,2.67-22.66,0-35.28l36.49-.27c10.68-.08,21.58,5.22,27.23,14.42l42.53,69.33-33.23,18.84-528.12-.05c-12.71-5.72-24.22-11.52-36.61-18.69l43.08-70.1c6.22-10.12,18.59-14.09,29.92-13.82l26.32.64c12.72.31-.46,17.83,3.73,35.99-4.21,2.47-7.82,4.79-10.89,8.25-6.62,7.48-4.72,17.75,3.31,23.82,18.31,13.83,51.05,14.15,70.68,2.37,6.26-3.76,10.38-8.91,11.53-16.04s-.83-12.85-6.83-17.12c-.52-3.13-.27-6.62.65-9.84l8.07-28.47,228.35-.08c3.34,0,8.78.36,9.72,3.43l6.83,22.22c1.15,3.75.37,10.63-.09,14.74h-.02Z"></path><path class="cls-3" d="M75.31,718.21c0,2.6-2.46,1.54-3.43.78l-48.91-37.92c-8.02-6.21-13.66-13.18-13.66-24.02l.04-231.36,16.01,9.93c6.19,3.46,12.99,5.87,20.29,5.91l29.66.15v276.53h0Z"></path><path class="cls-1" d="M320.16,682.54l-19.47-.02c-3.6,0-5.88-2.85-6.15-6.22l-1.31-16.53-19.36-7.8-12.15,10.29c-3.45,2.92-7.44,2.63-10.57-.53l-12.39-12.52c-3.28-3.32-2.3-7.09.48-10.37l9.89-11.69c-3.28-6.2-5.75-12.06-7.6-18.75l-15.87-1.38c-1.93-.17-3.76-.33-4.96-1.32-1.35-1.12-2.2-3.21-2.22-5.44l-.12-19.01c-.03-4.17,2.55-6.31,6.51-6.65l16.59-1.41c2.05-6.7,4.25-12.71,7.5-18.79l-11.14-13.3c-1.99-2.38-1.46-5.88.66-8.03l13.41-13.62c1.96-1.99,5.2-2.76,7.51-.92l14.2,11.28,19.45-8.53,2-18.67c.27-2.52,3.85-3.71,6.17-3.73l18.22-.15c13.25-.11,6.83,20.34,12.92,23.39l15.25,7.64,12.33-10.26c2.66-2.22,6.25-3.04,8.93-.36l13.45,13.4c3.17,3.16,2.64,7-.09,10.3l-9.99,12.12c3.55,6.02,5.93,11.6,7.67,18.24l15.76,1.41c1.98.18,3.66.23,4.92,1.22,1.46,1.15,2.27,3.06,2.28,5.39l.04,19.04c0,4.06-2.34,6.38-6.35,6.71l-16.72,1.39c-1.83,6.78-4.48,12.61-7.57,18.87l10.25,12.16c2.51,2.98,2.76,6.76-.11,9.65l-12.4,12.5c-3.36,3.38-7.25,3.26-10.97.27l-12.2-9.82-17.95,7.66-1.72,15.18c-.43,3.82-1.98,7.7-7.04,7.69l.03.02ZM353.07,590.89c0-23.45-19.01-42.46-42.46-42.46s-42.46,19.01-42.46,42.46,19.01,42.46,42.46,42.46,42.46-19.01,42.46-42.46Z"></path><circle class="cls-3" cx="310.61" cy="590.89" r="42.46"></circle><path class="cls-3" d="M545.37,720.2l-.07-278.44,31.42-.34c6.56-.07,13.19-2.08,18.58-5.52l16.66-10.62.04,232.79c-.77,8.97-4.28,16.42-11.59,21l-55.04,41.13h0Z"></path><path class="cls-2" d="M244.61,62.64c-11.29,7.84-23.49,10.5-36.69,10.91-13.86.43-26.67,2.79-39.21,9.13,2.78-10.48,7.18-19.11,13.68-26.64,12.54-15.31,31.98-20.67,50.68-13.91l25.33,10.94-13.78,9.57h0Z"></path><path class="cls-2" d="M168.33,131.38c-7.41,3.32-13.89,6.17-20.43,10.5-1.87-22.88,6.52-42.91,26.99-51.36,9.31-3.84,18.94-5.47,28.92-6.88l13.1-1.86-9.85,18.84c-5.26,10.05-12.11,18.85-22.52,23.51l-16.21,7.26h0Z"></path><path class="cls-2" d="M342.31,48.98c-10.25-1.36-20.04-4.36-26.86-11.49l-17.56-18.35c-5.55-5.43-11.06-9.44-18.8-13.4,25.79-11.65,56.37-5.83,68.18,19.93l11.71,25.53s-16.67-2.22-16.67-2.22Z"></path><path class="cls-2" d="M439.59,172.37c-8.31-20.73-10.64-37.01.55-55.72,6.39-10.9,11.27-21.78,13.5-34.85,19.26,21.85,24.47,46.09,5.01,68.55l-19.07,22.01h.01Z"></path><path class="cls-2" d="M400.91,78.05l-14.78-9.3c-9.21-5.7-15.97-13.81-19.92-23.96l-9.67-23.32c-2.45-5.91-6.8-10.12-10.98-15,20.27.3,39.76,5.28,50,22.85,5.13,8.81,6.58,18.74,6.45,28.91l-1.09,19.81h0Z"></path><path class="cls-2" d="M427.75,120.87l-11.58-18.04c-5.86-9.13-7.23-19.66-6.07-30.48l1.26-13.95c.76-8.38-.21-15.86-2.93-24.7,23.94,9.23,39.75,29.01,33.6,54.11l-6.45,17.35-7.82,15.71h-.01Z"></path><path class="cls-2" d="M292.95,47.04c-13.06,3.13-25.46.7-36.94-5.1l-17.29-8.73c-6.62-3.34-13.48-4.08-21.53-4.14,19.69-19.8,49.77-25.88,69.5-6.75l21.69,21.03-15.44,3.7h.01Z"></path><path class="cls-2" d="M137.77,199.9c-2.88-5.72-1.63-11.66-1.23-17.68.87-13.19,7.52-24.49,18.56-31.55l15.37-8.53c6.66-3.69,13.35-6.21,19.86-10.16l-2.8,25.2c-1.39,12.48-10.64,21.42-21.65,27.33-9.22,4.84-18.31,8.76-28.11,15.39Z"></path><path class="cls-2" d="M128.2,256.37c-3.5-12.99-1.64-27.03,6.26-38.28,11.92-14.17,30.04-17.99,44.75-29.92.13,27.18-2.5,45.36-28.86,57.78-7.29,3.29-13.9,5.64-22.15,10.43h0Z"></path><path class="cls-2" d="M447.97,226.61c-8.83-21.03-10.78-39.77,5.04-56.13,8.02-8.3,15.98-16.06,21.59-26.83l6.6,17.84c4.23,15.8-.7,30.7-12.28,42.15-7.44,7.36-15,14.15-20.95,22.96h0Z"></path><path class="cls-2" d="M458.18,272.26c-2.94,2.32-7.94-3.86-6.95-7.21-4.98-15.59-.11-30.79,11.71-41.59,7.4-7.51,14.93-14.12,21.08-23.5,10.08,19.77,11.06,43.14-6.62,57.11l-19.23,15.19h.01Z"></path><path class="cls-2" d="M167.77,271.13c-12.91,6.8-27.98,7.42-41.77,2.5,5.24-5.51,11.31-7.75,17.39-10.64,8.65-3.5,16.4-7.29,24.79-13.41,1.2,7.06.78,13.68-.41,21.55h0Z"></path><path class="cls-2" d="M497.29,272.5c-7.36,3.91-15.53,4.95-23.74,3.87,7.18-5.73,13.23-9.91,18.86-16.64l4.88,12.77h0Z"></path></svg></g></g></svg></g></svg>