<?xml version="1.0" encoding="UTF-8"?>
<svg version="1.1" xmlns="http://www.w3.org/2000/svg" width="646" height="646">
<path d="M0 0 C2.20551075 -0.00135974 4.41102127 -0.00314286 6.61653137 -0.00531006 C12.52674797 -0.00981255 18.43694683 -0.00812588 24.34716368 -0.00493097 C30.563525 -0.00237427 36.77988495 -0.00475362 42.99624634 -0.00631714 C53.41367868 -0.00812736 63.8311039 -0.00576082 74.24853516 -0.00097656 C84.94287664 0.00387825 95.63720186 0.0039231 106.33154297 -0.00097656 C118.03224644 -0.00633492 129.73294319 -0.00831761 141.43364775 -0.0053643 C147.60903108 -0.00380902 153.78440646 -0.00358761 159.95978928 -0.00690079 C165.753166 -0.00979317 171.54652088 -0.00777867 177.33989525 -0.00200653 C179.46148454 -0.00068714 181.58307568 -0.00105909 183.70466423 -0.0032692 C186.60581763 -0.00601249 189.50690153 -0.00256105 192.40805054 0.00241089 C193.6583891 -0.00093519 193.6583891 -0.00093519 194.93398702 -0.00434887 C195.72148639 -0.00174113 196.50898576 0.00086662 197.32034874 0.00355339 C197.98796018 0.00371574 198.65557162 0.0038781 199.34341371 0.00404537 C203.2016284 0.19489726 207.03813594 0.70280503 210.87744141 1.12939453 C211.53744141 9.37939453 212.19744141 17.62939453 212.87744141 26.12939453 C217.79263672 26.22027344 217.79263672 26.22027344 222.80712891 26.31298828 C226.00766962 26.37493197 229.20818031 26.43825546 232.40869141 26.50170898 C234.61992681 26.54481645 236.83119034 26.58650669 239.04248047 26.62670898 C242.23494923 26.68500249 245.42727953 26.74852146 248.61962891 26.81298828 C249.59608368 26.82970078 250.57253845 26.84641327 251.57858276 26.8636322 C257.72149765 26.99394403 263.77390827 27.4221099 269.87744141 28.12939453 C270.7675072 31.44101349 270.9933933 34.33043932 270.97509766 37.77001953 C270.9726001 38.73456055 270.97010254 39.69910156 270.9675293 40.69287109 C270.95387329 42.5177002 270.95387329 42.5177002 270.93994141 44.37939453 C270.91931641 48.25689453 270.89869141 52.13439453 270.87744141 56.12939453 C280.77744141 56.12939453 290.67744141 56.12939453 300.87744141 56.12939453 C300.87744141 75.59939453 300.87744141 95.06939453 300.87744141 115.12939453 C310.11744141 115.12939453 319.35744141 115.12939453 328.87744141 115.12939453 C328.87744141 174.52939453 328.87744141 233.92939453 328.87744141 295.12939453 C345.04744141 295.12939453 361.21744141 295.12939453 377.87744141 295.12939453 C377.87744141 304.03939453 377.87744141 312.94939453 377.87744141 322.12939453 C387.11744141 322.12939453 396.35744141 322.12939453 405.87744141 322.12939453 C405.87744141 348.52939453 405.87744141 374.92939453 405.87744141 402.12939453 C396.63744141 402.12939453 387.39744141 402.12939453 377.87744141 402.12939453 C377.87744141 411.03939453 377.87744141 419.94939453 377.87744141 429.12939453 C352.2010058 429.28407185 326.54642426 428.69711367 300.87744141 428.12939453 C300.88904297 429.19158203 300.90064453 430.25376953 300.91259766 431.34814453 C301.01798871 445.28611074 301.01798871 445.28611074 299.87744141 452.12939453 C272.56669636 453.59260914 245.21615718 453.2181566 217.87744141 453.12939453 C217.87744141 461.37939453 217.87744141 469.62939453 217.87744141 478.12939453 C195.43744141 478.12939453 172.99744141 478.12939453 149.87744141 478.12939453 C150.20744141 487.36939453 150.53744141 496.60939453 150.87744141 506.12939453 C159.12744141 506.12939453 167.37744141 506.12939453 175.87744141 506.12939453 C175.87744141 523.94939453 175.87744141 541.76939453 175.87744141 560.12939453 C167.62744141 560.45939453 159.37744141 560.78939453 150.87744141 561.12939453 C150.87744141 564.42939453 150.87744141 567.72939453 150.87744141 571.12939453 C150.78769432 573.0896598 150.67068384 575.04930146 150.50244141 577.00439453 C150.43283203 577.88869141 150.36322266 578.77298828 150.29150391 579.68408203 C149.87744141 582.12939453 149.87744141 582.12939453 147.87744141 586.12939453 C139.62744141 586.45939453 131.37744141 586.78939453 122.87744141 587.12939453 C122.87744141 595.70939453 122.87744141 604.28939453 122.87744141 613.12939453 C114.62744141 613.12939453 106.37744141 613.12939453 97.87744141 613.12939453 C97.87744141 622.03939453 97.87744141 630.94939453 97.87744141 640.12939453 C87.97744141 640.12939453 78.07744141 640.12939453 67.87744141 640.12939453 C67.87744141 631.21939453 67.87744141 622.30939453 67.87744141 613.12939453 C59.62744141 613.12939453 51.37744141 613.12939453 42.87744141 613.12939453 C42.87744141 604.54939453 42.87744141 595.96939453 42.87744141 587.12939453 C33.63744141 587.12939453 24.39744141 587.12939453 14.87744141 587.12939453 C14.87744141 577.88939453 14.87744141 568.64939453 14.87744141 559.12939453 C14.21744141 559.45939453 13.55744141 559.78939453 12.87744141 560.12939453 C11.23381529 560.22541766 9.58636875 560.26014014 7.93994141 560.26220703 C6.96283203 560.26349609 5.98572266 560.26478516 4.97900391 560.26611328 C3.95548828 560.26224609 2.93197266 560.25837891 1.87744141 560.25439453 C0.34216797 560.26019531 0.34216797 560.26019531 -1.22412109 560.26611328 C-2.20123047 560.26482422 -3.17833984 560.26353516 -4.18505859 560.26220703 C-5.08353516 560.2610791 -5.98201172 560.25995117 -6.90771484 560.25878906 C-9.12255859 560.12939453 -9.12255859 560.12939453 -11.12255859 559.12939453 C-11.12255859 541.63939453 -11.12255859 524.14939453 -11.12255859 506.12939453 C-2.54255859 506.12939453 6.03744141 506.12939453 14.87744141 506.12939453 C14.87744141 496.88939453 14.87744141 487.64939453 14.87744141 478.12939453 C-6.90255859 478.12939453 -28.68255859 478.12939453 -51.12255859 478.12939453 C-52.24755859 463.50439453 -52.24755859 463.50439453 -52.18505859 458.31689453 C-52.17603516 457.32044922 -52.16701172 456.32400391 -52.15771484 455.29736328 C-52.14611328 454.58193359 -52.13451172 453.86650391 -52.12255859 453.12939453 C-52.74717987 453.13201294 -53.37180115 453.13463135 -54.01535034 453.1373291 C-72.43169321 453.20309507 -90.83467434 452.96801706 -109.24755859 452.62939453 C-111.97150868 452.5807482 -114.69547056 452.53277884 -117.41943359 452.48486328 C-123.98719721 452.36914934 -130.55486329 452.24919614 -137.12255859 452.12939453 C-137.61755859 439.75439453 -137.61755859 439.75439453 -138.12255859 427.12939453 C-162.21255859 427.12939453 -186.30255859 427.12939453 -211.12255859 427.12939453 C-211.95633953 423.7942708 -212.24070224 421.50495221 -212.22021484 418.14501953 C-212.21771729 417.30229492 -212.21521973 416.45957031 -212.21264648 415.59130859 C-212.20354248 414.53137695 -212.19443848 413.47144531 -212.18505859 412.37939453 C-212.16443359 408.99689453 -212.14380859 405.61439453 -212.12255859 402.12939453 C-221.36255859 402.12939453 -230.60255859 402.12939453 -240.12255859 402.12939453 C-240.12255859 375.72939453 -240.12255859 349.32939453 -240.12255859 322.12939453 C-230.88255859 322.12939453 -221.64255859 322.12939453 -212.12255859 322.12939453 C-212.12255859 313.21939453 -212.12255859 304.30939453 -212.12255859 295.12939453 C-196.28255859 295.12939453 -180.44255859 295.12939453 -164.12255859 295.12939453 C-164.12255859 235.72939453 -164.12255859 176.32939453 -164.12255859 115.12939453 C-154.88255859 115.12939453 -145.64255859 115.12939453 -136.12255859 115.12939453 C-136.14318359 112.05626953 -136.16380859 108.98314453 -136.18505859 105.81689453 C-136.23525241 89.58103173 -135.64555406 73.35477235 -135.12255859 57.12939453 C-128.39071446 56.25252868 -121.8440218 56.00552256 -115.06005859 56.06689453 C-113.61856445 56.07366211 -113.61856445 56.07366211 -112.14794922 56.08056641 C-109.80608438 56.09221748 -107.46435678 56.10857428 -105.12255859 56.12939453 C-105.13416016 54.86224609 -105.14576172 53.59509766 -105.15771484 52.28955078 C-105.16710278 50.59033352 -105.1762019 48.89111464 -105.18505859 47.19189453 C-105.1934375 46.36109375 -105.20181641 45.53029297 -105.21044922 44.67431641 C-105.23222815 39.07713013 -104.83415128 33.68205871 -104.12255859 28.12939453 C-91.77202032 27.16096035 -79.50531592 27.00762013 -67.12255859 27.06689453 C-65.26839315 27.07192597 -63.41422637 27.07648593 -61.56005859 27.08056641 C-57.08085791 27.09142709 -52.60172371 27.10859841 -48.12255859 27.12939453 C-48.12763428 26.42379395 -48.13270996 25.71819336 -48.13793945 24.99121094 C-48.16082728 19.4710406 -48.08182484 14.01028927 -47.68505859 8.50439453 C-47.56324219 6.72162109 -47.56324219 6.72162109 -47.43896484 4.90283203 C-47.12255859 2.12939453 -47.12255859 2.12939453 -46.12255859 1.12939453 C-44.68869599 0.97252023 -43.24756804 0.88119548 -41.80655479 0.81753731 C-40.43429172 0.75557586 -40.43429172 0.75557586 -39.03430617 0.69236267 C-38.03470724 0.65362694 -37.03510831 0.61489122 -36.00521851 0.57498169 C-34.45045069 0.51179062 -34.45045069 0.51179062 -32.86427343 0.44732296 C-21.9087564 0.0340055 -10.96187371 -0.01158824 0 0 Z " fill="#1D2D48" transform="translate(240.12255859375,3.87060546875)"/>
<path d="M0 0 C2.20551075 -0.00135974 4.41102127 -0.00314286 6.61653137 -0.00531006 C12.52674797 -0.00981255 18.43694683 -0.00812588 24.34716368 -0.00493097 C30.563525 -0.00237427 36.77988495 -0.00475362 42.99624634 -0.00631714 C53.41367868 -0.00812736 63.8311039 -0.00576082 74.24853516 -0.00097656 C84.94287664 0.00387825 95.63720186 0.0039231 106.33154297 -0.00097656 C118.03224644 -0.00633492 129.73294319 -0.00831761 141.43364775 -0.0053643 C147.60903108 -0.00380902 153.78440646 -0.00358761 159.95978928 -0.00690079 C165.753166 -0.00979317 171.54652088 -0.00777867 177.33989525 -0.00200653 C179.46148454 -0.00068714 181.58307568 -0.00105909 183.70466423 -0.0032692 C186.60581763 -0.00601249 189.50690153 -0.00256105 192.40805054 0.00241089 C193.6583891 -0.00093519 193.6583891 -0.00093519 194.93398702 -0.00434887 C195.72148639 -0.00174113 196.50898576 0.00086662 197.32034874 0.00355339 C197.98796018 0.00371574 198.65557162 0.0038781 199.34341371 0.00404537 C203.2016284 0.19489726 207.03813594 0.70280503 210.87744141 1.12939453 C211.53744141 9.37939453 212.19744141 17.62939453 212.87744141 26.12939453 C217.79263672 26.22027344 217.79263672 26.22027344 222.80712891 26.31298828 C226.00766962 26.37493197 229.20818031 26.43825546 232.40869141 26.50170898 C234.61992681 26.54481645 236.83119034 26.58650669 239.04248047 26.62670898 C242.23494923 26.68500249 245.42727953 26.74852146 248.61962891 26.81298828 C249.59608368 26.82970078 250.57253845 26.84641327 251.57858276 26.8636322 C257.72149765 26.99394403 263.77390827 27.4221099 269.87744141 28.12939453 C271.19569917 32.11350961 271.01028953 36.15027574 270.9909668 40.29443359 C270.99111282 41.11431763 270.99125885 41.93420166 270.9914093 42.77893066 C270.99071358 45.48432069 270.98293713 48.18964156 270.97509766 50.89501953 C270.97323227 52.77260297 270.97180893 54.6501869 270.97080994 56.527771 C270.96699429 61.46628161 270.95717212 66.40476274 270.94610596 71.34326172 C270.93587137 76.38394777 270.93130793 81.42463858 270.92626953 86.46533203 C270.91554901 96.35336789 270.8979599 106.24137415 270.87744141 116.12939453 C280.44744141 116.12939453 290.01744141 116.12939453 299.87744141 116.12939453 C299.87744141 152.75939453 299.87744141 189.38939453 299.87744141 227.12939453 C289.97744141 227.12939453 280.07744141 227.12939453 269.87744141 227.12939453 C269.87744141 211.94939453 269.87744141 196.76939453 269.87744141 181.12939453 C260.96744141 181.12939453 252.05744141 181.12939453 242.87744141 181.12939453 C242.87744141 218.74939453 242.87744141 256.36939453 242.87744141 295.12939453 C136.94744141 295.12939453 31.01744141 295.12939453 -78.12255859 295.12939453 C-78.12255859 257.50939453 -78.12255859 219.88939453 -78.12255859 181.12939453 C-86.70255859 181.12939453 -95.28255859 181.12939453 -104.12255859 181.12939453 C-104.12255859 196.30939453 -104.12255859 211.48939453 -104.12255859 227.12939453 C-114.35255859 227.12939453 -124.58255859 227.12939453 -135.12255859 227.12939453 C-135.12255859 190.49939453 -135.12255859 153.86939453 -135.12255859 116.12939453 C-144.69255859 116.12939453 -154.26255859 116.12939453 -164.12255859 116.12939453 C-164.12255859 115.79939453 -164.12255859 115.46939453 -164.12255859 115.12939453 C-154.88255859 115.12939453 -145.64255859 115.12939453 -136.12255859 115.12939453 C-136.15349609 110.51970703 -136.15349609 110.51970703 -136.18505859 105.81689453 C-136.23525241 89.58103173 -135.64555406 73.35477235 -135.12255859 57.12939453 C-128.39071446 56.25252868 -121.8440218 56.00552256 -115.06005859 56.06689453 C-113.61856445 56.07366211 -113.61856445 56.07366211 -112.14794922 56.08056641 C-109.80608438 56.09221748 -107.46435678 56.10857428 -105.12255859 56.12939453 C-105.13416016 54.86224609 -105.14576172 53.59509766 -105.15771484 52.28955078 C-105.16710278 50.59033352 -105.1762019 48.89111464 -105.18505859 47.19189453 C-105.1934375 46.36109375 -105.20181641 45.53029297 -105.21044922 44.67431641 C-105.23222815 39.07713013 -104.83415128 33.68205871 -104.12255859 28.12939453 C-91.77202032 27.16096035 -79.50531592 27.00762013 -67.12255859 27.06689453 C-65.26839315 27.07192597 -63.41422637 27.07648593 -61.56005859 27.08056641 C-57.08085791 27.09142709 -52.60172371 27.10859841 -48.12255859 27.12939453 C-48.12763428 26.42379395 -48.13270996 25.71819336 -48.13793945 24.99121094 C-48.16082728 19.4710406 -48.08182484 14.01028927 -47.68505859 8.50439453 C-47.56324219 6.72162109 -47.56324219 6.72162109 -47.43896484 4.90283203 C-47.12255859 2.12939453 -47.12255859 2.12939453 -46.12255859 1.12939453 C-44.68869599 0.97252023 -43.24756804 0.88119548 -41.80655479 0.81753731 C-40.43429172 0.75557586 -40.43429172 0.75557586 -39.03430617 0.69236267 C-38.03470724 0.65362694 -37.03510831 0.61489122 -36.00521851 0.57498169 C-34.45045069 0.51179062 -34.45045069 0.51179062 -32.86427343 0.44732296 C-21.9087564 0.0340055 -10.96187371 -0.01158824 0 0 Z " fill="#F6A743" transform="translate(240.12255859375,3.87060546875)"/>
<path d="M0 0 C19.47 0 38.94 0 59 0 C59 7.59 59 15.18 59 23 C182.75 23 306.5 23 434 23 C434 15.41 434 7.82 434 0 C453.47 0 472.94 0 493 0 C493 7.92 493 15.84 493 24 C508.84 24 524.68 24 541 24 C541 49.74 541 75.48 541 102 C346.96 102 152.92 102 -47 102 C-47 76.26 -47 50.52 -47 24 C-31.49 24 -15.98 24 0 24 C0 16.08 0 8.16 0 0 Z " fill="#FDFDFD" transform="translate(76,303)"/>
<path d="M0 0 C2.20551075 -0.00135974 4.41102127 -0.00314286 6.61653137 -0.00531006 C12.52674797 -0.00981255 18.43694683 -0.00812588 24.34716368 -0.00493097 C30.563525 -0.00237427 36.77988495 -0.00475362 42.99624634 -0.00631714 C53.41367868 -0.00812736 63.8311039 -0.00576082 74.24853516 -0.00097656 C84.94287664 0.00387825 95.63720186 0.0039231 106.33154297 -0.00097656 C118.03224644 -0.00633492 129.73294319 -0.00831761 141.43364775 -0.0053643 C147.60903108 -0.00380902 153.78440646 -0.00358761 159.95978928 -0.00690079 C165.753166 -0.00979317 171.54652088 -0.00777867 177.33989525 -0.00200653 C179.46148454 -0.00068714 181.58307568 -0.00105909 183.70466423 -0.0032692 C186.60581763 -0.00601249 189.50690153 -0.00256105 192.40805054 0.00241089 C193.6583891 -0.00093519 193.6583891 -0.00093519 194.93398702 -0.00434887 C195.72148639 -0.00174113 196.50898576 0.00086662 197.32034874 0.00355339 C197.98796018 0.00371574 198.65557162 0.0038781 199.34341371 0.00404537 C203.2016284 0.19489726 207.03813594 0.70280503 210.87744141 1.12939453 C211.53744141 9.37939453 212.19744141 17.62939453 212.87744141 26.12939453 C217.79263672 26.22027344 217.79263672 26.22027344 222.80712891 26.31298828 C226.00766962 26.37493197 229.20818031 26.43825546 232.40869141 26.50170898 C234.61992681 26.54481645 236.83119034 26.58650669 239.04248047 26.62670898 C242.23494923 26.68500249 245.42727953 26.74852146 248.61962891 26.81298828 C249.59608368 26.82970078 250.57253845 26.84641327 251.57858276 26.8636322 C257.72149765 26.99394403 263.77390827 27.4221099 269.87744141 28.12939453 C271.19569917 32.11350961 271.01028953 36.15027574 270.9909668 40.29443359 C270.99111282 41.11431763 270.99125885 41.93420166 270.9914093 42.77893066 C270.99071358 45.48432069 270.98293713 48.18964156 270.97509766 50.89501953 C270.97323227 52.77260297 270.97180893 54.6501869 270.97080994 56.527771 C270.96699429 61.46628161 270.95717212 66.40476274 270.94610596 71.34326172 C270.93587137 76.38394777 270.93130793 81.42463858 270.92626953 86.46533203 C270.91554901 96.35336789 270.8979599 106.24137415 270.87744141 116.12939453 C280.44744141 116.12939453 290.01744141 116.12939453 299.87744141 116.12939453 C299.87744141 152.75939453 299.87744141 189.38939453 299.87744141 227.12939453 C289.97744141 227.12939453 280.07744141 227.12939453 269.87744141 227.12939453 C269.87744141 211.94939453 269.87744141 196.76939453 269.87744141 181.12939453 C260.63744141 181.12939453 251.39744141 181.12939453 241.87744141 181.12939453 C241.87744141 152.74939453 241.87744141 124.36939453 241.87744141 95.12939453 C232.30744141 95.12939453 222.73744141 95.12939453 212.87744141 95.12939453 C212.54744141 94.79939453 212.21744141 94.46939453 211.87744141 94.12939453 C211.87744141 86.86939453 211.87744141 79.60939453 211.87744141 72.12939453 C190.09744141 72.12939453 168.31744141 72.12939453 145.87744141 72.12939453 C145.87744141 79.71939453 145.87744141 87.30939453 145.87744141 95.12939453 C104.62744141 95.12939453 63.37744141 95.12939453 20.87744141 95.12939453 C20.87744141 87.53939453 20.87744141 79.94939453 20.87744141 72.12939453 C-1.89255859 72.12939453 -24.66255859 72.12939453 -48.12255859 72.12939453 C-48.12255859 79.71939453 -48.12255859 87.30939453 -48.12255859 95.12939453 C-58.02255859 95.12939453 -67.92255859 95.12939453 -78.12255859 95.12939453 C-78.12255859 123.50939453 -78.12255859 151.88939453 -78.12255859 181.12939453 C-86.70255859 181.12939453 -95.28255859 181.12939453 -104.12255859 181.12939453 C-104.12255859 196.30939453 -104.12255859 211.48939453 -104.12255859 227.12939453 C-114.35255859 227.12939453 -124.58255859 227.12939453 -135.12255859 227.12939453 C-135.12255859 190.49939453 -135.12255859 153.86939453 -135.12255859 116.12939453 C-144.69255859 116.12939453 -154.26255859 116.12939453 -164.12255859 116.12939453 C-164.12255859 115.79939453 -164.12255859 115.46939453 -164.12255859 115.12939453 C-154.88255859 115.12939453 -145.64255859 115.12939453 -136.12255859 115.12939453 C-136.15349609 110.51970703 -136.15349609 110.51970703 -136.18505859 105.81689453 C-136.23525241 89.58103173 -135.64555406 73.35477235 -135.12255859 57.12939453 C-128.39071446 56.25252868 -121.8440218 56.00552256 -115.06005859 56.06689453 C-113.61856445 56.07366211 -113.61856445 56.07366211 -112.14794922 56.08056641 C-109.80608438 56.09221748 -107.46435678 56.10857428 -105.12255859 56.12939453 C-105.13416016 54.86224609 -105.14576172 53.59509766 -105.15771484 52.28955078 C-105.16710278 50.59033352 -105.1762019 48.89111464 -105.18505859 47.19189453 C-105.1934375 46.36109375 -105.20181641 45.53029297 -105.21044922 44.67431641 C-105.23222815 39.07713013 -104.83415128 33.68205871 -104.12255859 28.12939453 C-91.77202032 27.16096035 -79.50531592 27.00762013 -67.12255859 27.06689453 C-65.26839315 27.07192597 -63.41422637 27.07648593 -61.56005859 27.08056641 C-57.08085791 27.09142709 -52.60172371 27.10859841 -48.12255859 27.12939453 C-48.12763428 26.42379395 -48.13270996 25.71819336 -48.13793945 24.99121094 C-48.16082728 19.4710406 -48.08182484 14.01028927 -47.68505859 8.50439453 C-47.56324219 6.72162109 -47.56324219 6.72162109 -47.43896484 4.90283203 C-47.12255859 2.12939453 -47.12255859 2.12939453 -46.12255859 1.12939453 C-44.68869599 0.97252023 -43.24756804 0.88119548 -41.80655479 0.81753731 C-40.43429172 0.75557586 -40.43429172 0.75557586 -39.03430617 0.69236267 C-38.03470724 0.65362694 -37.03510831 0.61489122 -36.00521851 0.57498169 C-34.45045069 0.51179062 -34.45045069 0.51179062 -32.86427343 0.44732296 C-21.9087564 0.0340055 -10.96187371 -0.01158824 0 0 Z " fill="#7CD1F0" transform="translate(240.12255859375,3.87060546875)"/>
<path d="M0 0 C9.9 0 19.8 0 30 0 C30 19.47 30 38.94 30 59 C39.24 59 48.48 59 58 59 C58 118.4 58 177.8 58 239 C74.17 239 90.34 239 107 239 C107 247.91 107 256.82 107 266 C116.24 266 125.48 266 135 266 C135 292.4 135 318.8 135 346 C125.76 346 116.52 346 107 346 C107 354.91 107 363.82 107 373 C98.75 373 90.5 373 82 373 C82 372.67 82 372.34 82 372 C89.92 372 97.84 372 106 372 C106 363.42 106 354.84 106 346 C-97.61 346 -301.22 346 -511 346 C-511 319.6 -511 293.2 -511 266 C-501.76 266 -492.52 266 -483 266 C-483 257.09 -483 248.18 -483 239 C-467.16 239 -451.32 239 -435 239 C-435 179.93 -435 120.86 -435 60 C-425.43 60 -415.86 60 -406 60 C-406 96.63 -406 133.26 -406 171 C-395.77 171 -385.54 171 -375 171 C-375 155.82 -375 140.64 -375 125 C-366.42 125 -357.84 125 -349 125 C-349 162.62 -349 200.24 -349 239 C-243.07 239 -137.14 239 -28 239 C-28 201.38 -28 163.76 -28 125 C-19.09 125 -10.18 125 -1 125 C-1 140.18 -1 155.36 -1 171 C8.9 171 18.8 171 29 171 C29 134.37 29 97.74 29 60 C19.43 60 9.86 60 0 60 C0 40.2 0 20.4 0 0 Z M-435 243 C-435 250.92 -435 258.84 -435 267 C-450.51 267 -466.02 267 -482 267 C-482 292.74 -482 318.48 -482 345 C-287.96 345 -93.92 345 106 345 C106 319.26 106 293.52 106 267 C90.16 267 74.32 267 58 267 C58 259.08 58 251.16 58 243 C38.53 243 19.06 243 -1 243 C-1 250.59 -1 258.18 -1 266 C-124.75 266 -248.5 266 -376 266 C-376 258.41 -376 250.82 -376 243 C-395.47 243 -414.94 243 -435 243 Z " fill="#1D2C48" transform="translate(511,60)"/>
<path d="M0 0 C19.8 0 39.6 0 60 0 C60 4.62 60 9.24 60 14 C67.59 14 75.18 14 83 14 C83 24.23 83 34.46 83 45 C95.21 45 107.42 45 120 45 C120 34.77 120 24.54 120 14 C140.46 14 160.92 14 182 14 C182 42.38 182 70.76 182 100 C76.07 100 -29.86 100 -139 100 C-139 71.62 -139 43.24 -139 14 C-117.88 14 -96.76 14 -75 14 C-75 24.23 -75 34.46 -75 45 C-62.79 45 -50.58 45 -38 45 C-38 34.77 -38 24.54 -38 14 C-25.46 14 -12.92 14 0 14 C0 9.38 0 4.76 0 0 Z " fill="#FDFDFD" transform="translate(301,199)"/>
<path d="M0 0 C44.55 0 89.1 0 135 0 C135.33 9.24 135.66 18.48 136 28 C144.25 28 152.5 28 161 28 C161 45.82 161 63.64 161 82 C148.625 82.495 148.625 82.495 136 83 C136 86.3 136 89.6 136 93 C135.91025292 94.96026526 135.79324243 96.91990693 135.625 98.875 C135.55539062 99.75929688 135.48578125 100.64359375 135.4140625 101.5546875 C135 104 135 104 133 108 C120.625 108.495 120.625 108.495 108 109 C108 117.58 108 126.16 108 135 C99.75 135 91.5 135 83 135 C83 143.91 83 152.82 83 162 C73.1 162 63.2 162 53 162 C53 153.09 53 144.18 53 135 C44.75 135 36.5 135 28 135 C28 126.42 28 117.84 28 109 C18.76 109 9.52 109 0 109 C0 99.76 0 90.52 0 81 C-0.99 81.495 -0.99 81.495 -2 82 C-3.64362612 82.09602313 -5.29107266 82.13074561 -6.9375 82.1328125 C-7.91460937 82.13410156 -8.89171875 82.13539063 -9.8984375 82.13671875 C-10.92195312 82.13285156 -11.94546875 82.12898437 -13 82.125 C-14.02351562 82.12886719 -15.04703125 82.13273438 -16.1015625 82.13671875 C-17.07867187 82.13542969 -18.05578125 82.13414062 -19.0625 82.1328125 C-19.96097656 82.13168457 -20.85945312 82.13055664 -21.78515625 82.12939453 C-24 82 -24 82 -26 81 C-26 63.51 -26 46.02 -26 28 C-17.42 28 -8.84 28 0 28 C0 18.76 0 9.52 0 0 Z " fill="#2C8DE4" transform="translate(255,482)"/>
<path d="M0 0 C2.20551075 -0.00135974 4.41102127 -0.00314286 6.61653137 -0.00531006 C12.52674797 -0.00981255 18.43694683 -0.00812588 24.34716368 -0.00493097 C30.563525 -0.00237427 36.77988495 -0.00475362 42.99624634 -0.00631714 C53.41367868 -0.00812736 63.8311039 -0.00576082 74.24853516 -0.00097656 C84.94287664 0.00387825 95.63720186 0.0039231 106.33154297 -0.00097656 C118.03224644 -0.00633492 129.73294319 -0.00831761 141.43364775 -0.0053643 C147.60903108 -0.00380902 153.78440646 -0.00358761 159.95978928 -0.00690079 C165.753166 -0.00979317 171.54652088 -0.00777867 177.33989525 -0.00200653 C179.46148454 -0.00068714 181.58307568 -0.00105909 183.70466423 -0.0032692 C186.60581763 -0.00601249 189.50690153 -0.00256105 192.40805054 0.00241089 C193.6583891 -0.00093519 193.6583891 -0.00093519 194.93398702 -0.00434887 C200.31846732 0.01348144 205.53405582 0.45662702 210.87744141 1.12939453 C211.77331651 9.8641768 211.87744141 18.29367475 211.87744141 27.12939453 C126.40744141 27.12939453 40.93744141 27.12939453 -47.12255859 27.12939453 C-48.25426023 14.68067658 -48.25426023 14.68067658 -47.74755859 8.50439453 C-47.65732422 7.31587891 -47.56708984 6.12736328 -47.47412109 4.90283203 C-47.12255859 2.12939453 -47.12255859 2.12939453 -46.12255859 1.12939453 C-44.68869599 0.97252023 -43.24756804 0.88119548 -41.80655479 0.81753731 C-40.43429172 0.75557586 -40.43429172 0.75557586 -39.03430617 0.69236267 C-37.53490778 0.63425908 -37.53490778 0.63425908 -36.00521851 0.57498169 C-34.96870663 0.53285431 -33.93219476 0.49072693 -32.86427343 0.44732296 C-21.9087564 0.0340055 -10.96187371 -0.01158824 0 0 Z " fill="#1C2D49" transform="translate(240.12255859375,3.87060546875)"/>
<path d="M0 0 C0.33 0 0.66 0 1 0 C1 9.9 1 19.8 1 30 C20.14 30 39.28 30 59 30 C59 30.33 59 30.66 59 31 C39.53 31 20.06 31 0 31 C0 38.92 0 46.84 0 55 C-15.51 55 -31.02 55 -47 55 C-47 80.74 -47 106.48 -47 133 C147.04 133 341.08 133 541 133 C541 107.26 541 81.52 541 55 C525.16 55 509.32 55 493 55 C493 54.67 493 54.34 493 54 C508.84 54 524.68 54 541 54 C541 45.42 541 36.84 541 28 C525.16 28 509.32 28 493 28 C493 27.67 493 27.34 493 27 C509.17 27 525.34 27 542 27 C542 35.91 542 44.82 542 54 C551.24 54 560.48 54 570 54 C570 80.4 570 106.8 570 134 C560.76 134 551.52 134 542 134 C542 142.91 542 151.82 542 161 C533.75 161 525.5 161 517 161 C517 160.67 517 160.34 517 160 C524.92 160 532.84 160 541 160 C541 151.42 541 142.84 541 134 C337.39 134 133.78 134 -76 134 C-76 107.6 -76 81.2 -76 54 C-66.76 54 -57.52 54 -48 54 C-48 45.09 -48 36.18 -48 27 C-32.16 27 -16.32 27 0 27 C0 18.09 0 9.18 0 0 Z " fill="#24314D" transform="translate(76,272)"/>
<path d="M0 0 C25.41 0 50.82 0 77 0 C77 22.77 77 45.54 77 69 C69.08 69 61.16 69 53 69 C53 73.62 53 78.24 53 83 C43.76 83 34.52 83 25 83 C25 78.38 25 73.76 25 69 C16.75 69 8.5 69 0 69 C0 46.23 0 23.46 0 0 Z " fill="#FDFEFE" transform="translate(284,482)"/>
<path d="M0 0 C22.77 0 45.54 0 69 0 C69 7.59 69 15.18 69 23 C110.25 23 151.5 23 194 23 C194 32.24 194 41.48 194 51 C152.42 51 110.84 51 68 51 C68 41.76 68 32.52 68 23 C45.56 23 23.12 23 0 23 C0 15.41 0 7.82 0 0 Z " fill="#1E2D46" transform="translate(192,76)"/>
<path d="M0 0 C9.9 0 19.8 0 30 0 C30 13.2 30 26.4 30 40 C35.94 40 41.88 40 48 40 C48 47.26 48 54.52 48 62 C42.06 62 36.12 62 30 62 C30.01160156 63.64871094 30.02320313 65.29742187 30.03515625 66.99609375 C30.04453238 69.14322804 30.05363277 71.29036355 30.0625 73.4375 C30.07087891 74.52611328 30.07925781 75.61472656 30.08789062 76.73632812 C30.09272461 78.28803711 30.09272461 78.28803711 30.09765625 79.87109375 C30.10551147 81.30859985 30.10551147 81.30859985 30.11352539 82.77514648 C30 85 30 85 29 86 C19.43 86 9.86 86 0 86 C0 57.62 0 29.24 0 0 Z " fill="#202E47" transform="translate(162,99)"/>
<path d="M0 0 C9.57 0 19.14 0 29 0 C29 28.38 29 56.76 29 86 C19.43 86 9.86 86 0 86 C0 78.08 0 70.16 0 62 C-5.94 62 -11.88 62 -18 62 C-18 54.74 -18 47.48 -18 40 C-12.06 40 -6.12 40 0 40 C0 26.8 0 13.6 0 0 Z " fill="#1C2D48" transform="translate(453,99)"/>
<path d="M0 0 C25.74 0 51.48 0 78 0 C78 11.22 78 22.44 78 34 C52.26 34 26.52 34 0 34 C0 22.78 0 11.56 0 0 Z " fill="#2D8EE3" transform="translate(463,348)"/>
<path d="M0 0 C1.07461739 0.00539291 1.07461739 0.00539291 2.17094421 0.01089478 C2.92211517 0.01074875 3.67328613 0.01060272 4.44721985 0.01045227 C6.94166404 0.01115153 9.43603448 0.01894452 11.9304657 0.02676392 C13.65539509 0.02862805 15.38032501 0.03005197 17.10525513 0.03105164 C21.65418448 0.03487719 26.20308211 0.04470779 30.7519989 0.05575562 C36.20517572 0.06776335 41.65836313 0.0723718 47.11154938 0.07820892 C55.40407483 0.08791953 63.69653061 0.10707581 71.98905945 0.12442017 C71.98905945 11.34442017 71.98905945 22.56442017 71.98905945 34.12442017 C46.24905945 34.12442017 20.50905945 34.12442017 -6.01094055 34.12442017 C-6.01094055 0.01272675 -6.01094055 0.01272675 0 0 Z " fill="#F53126" transform="translate(110.01094055175781,347.8755798339844)"/>
<path d="M0 0 C9.24 0 18.48 0 28 0 C28 26.07 28 52.14 28 79 C18.76 79 9.52 79 0 79 C0 52.93 0 26.86 0 0 Z " fill="#202B49" transform="translate(618,327)"/>
<path d="M0 0 C9.24 0 18.48 0 28 0 C28 26.07 28 52.14 28 79 C18.76 79 9.52 79 0 79 C0 52.93 0 26.86 0 0 Z " fill="#1E2B47" transform="translate(0,327)"/>
<path d="M0 0 C12.21 0 24.42 0 37 0 C37 18.15 37 36.3 37 55 C24.79 55 12.58 55 0 55 C0 36.85 0 18.7 0 0 Z " fill="#222E47" transform="translate(384,189)"/>
<path d="M0 0 C11.88 0 23.76 0 36 0 C36 18.15 36 36.3 36 55 C24.12 55 12.24 55 0 55 C0 36.85 0 18.7 0 0 Z " fill="#202D47" transform="translate(226,189)"/>
<path d="M0 0 C1.22686523 0.00676758 1.22686523 0.00676758 2.47851562 0.01367188 C4.46487647 0.02528802 6.4511988 0.04321552 8.4375 0.0625 C8.4375 0.7225 8.4375 1.3825 8.4375 2.0625 C9.0975 2.0625 9.7575 2.0625 10.4375 2.0625 C10.4375 20.8725 10.4375 39.6825 10.4375 59.0625 C0.8675 59.0625 -8.7025 59.0625 -18.5625 59.0625 C-19.73491638 39.65249543 -19.29630863 20.47265337 -18.5625 1.0625 C-12.32691615 0.26978814 -6.28137143 -0.06720809 0 0 Z " fill="#1E2F4A" transform="translate(123.5625,59.9375)"/>
<path d="M0 0 C1.85416544 0.00503144 3.70833222 0.0095914 5.5625 0.01367188 C10.04172834 0.02367015 14.52076445 0.04326664 19 0.0625 C19 9.3025 19 18.5425 19 28.0625 C0.19 28.0625 -18.62 28.0625 -38 28.0625 C-38 7.8125 -38 7.8125 -37 1.0625 C-24.64946173 0.09406582 -12.38275733 -0.0592744 0 0 Z " fill="#1D2F49" transform="translate(173,30.9375)"/>
<path d="M0 0 C0 8.91 0 17.82 0 27 C-18.81 27 -37.62 27 -57 27 C-57 18.09 -57 9.18 -57 0 C-50.81109294 -0.16678232 -44.62233986 -0.32948123 -38.43310547 -0.48217773 C-36.33245942 -0.53518529 -34.23186957 -0.59047587 -32.13134766 -0.64819336 C-29.09289677 -0.73127036 -26.05433105 -0.80583256 -23.015625 -0.87890625 C-21.63204803 -0.91945885 -21.63204803 -0.91945885 -20.22052002 -0.96083069 C-13.32620796 -1.11477049 -6.97049865 -0.58087489 0 0 Z " fill="#1C2D49" transform="translate(510,32)"/>
<path d="M0 0 C21.78 0 43.56 0 66 0 C66 7.59 66 15.18 66 23 C44.22 23 22.44 23 0 23 C0 15.41 0 7.82 0 0 Z " fill="#1E2B47" transform="translate(386,76)"/>
<path d="M0 0 C9.57 0 19.14 0 29 0 C29 9.57 29 19.14 29 29 C36.92 29 44.84 29 53 29 C53 37.91 53 46.82 53 56 C44.75 56 36.5 56 28 56 C28 47.09 28 38.18 28 29 C18.76 29 9.52 29 0 29 C0 19.43 0 9.86 0 0 Z " fill="#1E2C46" transform="translate(309,228)"/>
<path d="M0 0 C16.17 0 32.34 0 49 0 C49 8.91 49 17.82 49 27 C58.24 27 67.48 27 77 27 C77 27.33 77 27.66 77 28 C67.76 28 58.52 28 49 28 C49 62.98 49 97.96 49 134 C40.75 134 32.5 134 24 134 C24 133.67 24 133.34 24 133 C31.92 133 39.84 133 48 133 C48 124.42 48 115.84 48 107 C-146.37 107 -340.74 107 -541 107 C-541 80.93 -541 54.86 -541 28 C-550.24 28 -559.48 28 -569 28 C-569 27.67 -569 27.34 -569 27 C-543.92 27 -518.84 27 -493 27 C-493 27.33 -493 27.66 -493 28 C-508.51 28 -524.02 28 -540 28 C-540 53.74 -540 79.48 -540 106 C-345.96 106 -151.92 106 48 106 C48 80.26 48 54.52 48 28 C32.16 28 16.32 28 0 28 C0 27.67 0 27.34 0 27 C15.84 27 31.68 27 48 27 C48 18.42 48 9.84 48 1 C32.16 1 16.32 1 0 1 C0 0.67 0 0.34 0 0 Z " fill="#545D6C" transform="translate(569,299)"/>
<path d="M0 0 C9.57 0 19.14 0 29 0 C29 9.57 29 19.14 29 29 C36.92 29 44.84 29 53 29 C53 37.91 53 46.82 53 56 C44.75 56 36.5 56 28 56 C28 37.85 28 19.7 28 1 C18.76 1 9.52 1 0 1 C0 0.67 0 0.34 0 0 Z " fill="#29364F" transform="translate(309,228)"/>
<path d="M0 0 C8.25 0 16.5 0 25 0 C25 8.91 25 17.82 25 27 C16.75 27 8.5 27 0 27 C0 18.09 0 9.18 0 0 Z " fill="#202E49" transform="translate(284,257)"/>
<path d="M0 0 C22.44 0 44.88 0 68 0 C68 0.33 68 0.66 68 1 C46.22 1.33 24.44 1.66 2 2 C1.91932477 19.52896154 1.91932477 19.52896154 3 37 C4.60681641 37.09087891 4.60681641 37.09087891 6.24609375 37.18359375 C7.64324391 37.26798537 9.04037857 37.35263406 10.4375 37.4375 C11.14455078 37.47681641 11.85160156 37.51613281 12.58007812 37.55664062 C17.88671875 37.88671875 17.88671875 37.88671875 19 39 C19.54161 42.98138268 19.80118694 46.99566386 20.125 51 C20.27388672 52.69769531 20.27388672 52.69769531 20.42578125 54.4296875 C20.51472656 55.50476563 20.60367188 56.57984375 20.6953125 57.6875 C20.77797363 58.68136719 20.86063477 59.67523438 20.94580078 60.69921875 C20.96368652 61.45847656 20.98157227 62.21773437 21 63 C20 64 20 64 18.23413086 64.11352539 C17.48526611 64.10828857 16.73640137 64.10305176 15.96484375 64.09765625 C15.15595703 64.09443359 14.34707031 64.09121094 13.51367188 64.08789062 C12.66353516 64.07951172 11.81339844 64.07113281 10.9375 64.0625 C10.08349609 64.05798828 9.22949219 64.05347656 8.34960938 64.04882812 C6.23304337 64.03700373 4.11651315 64.01906769 2 64 C2.00523682 64.69150146 2.01047363 65.38300293 2.01586914 66.09545898 C2.036575 69.20946352 2.04963963 72.32345361 2.0625 75.4375 C2.07087891 76.52611328 2.07925781 77.61472656 2.08789062 78.73632812 C2.09111328 79.77080078 2.09433594 80.80527344 2.09765625 81.87109375 C2.10289307 82.82943115 2.10812988 83.78776855 2.11352539 84.77514648 C2 87 2 87 1 88 C-1.14558827 88.08775605 -3.29404421 88.10695219 -5.44140625 88.09765625 C-6.74658203 88.09443359 -8.05175781 88.09121094 -9.39648438 88.08789062 C-10.7851569 88.07953401 -12.17382877 88.07106905 -13.5625 88.0625 C-14.95507656 88.05748666 -16.34765481 88.05292347 -17.74023438 88.04882812 C-21.16017451 88.03699442 -24.5800925 88.01905831 -28 88 C-28 95.92 -28 103.84 -28 112 C2.195 112.495 2.195 112.495 33 113 C32.67 108.71 32.34 104.42 32 100 C31.74153037 92.15975467 31.74153037 92.15975467 32 90 C34 88 34 88 37.53173828 87.77294922 C39.04463331 87.77326637 40.55755088 87.78459367 42.0703125 87.8046875 C42.86654022 87.8075174 43.66276794 87.81034729 44.48312378 87.81326294 C47.03056763 87.8244736 49.57766211 87.84957938 52.125 87.875 C53.85025535 87.88502867 55.57551619 87.89415472 57.30078125 87.90234375 C61.53398914 87.92441578 65.7669353 87.95895133 70 88 C70 88.66 70 89.32 70 90 C58.12 90 46.24 90 34 90 C34 97.92 34 105.84 34 114 C12.88 114 -8.24 114 -30 114 C-30 104.76 -30 95.52 -30 86 C-20.43 85.67 -10.86 85.34 -1 85 C-0.67 77.41 -0.34 69.82 0 62 C5.94 62 11.88 62 18 62 C18 54.74 18 47.48 18 40 C12.06 40 6.12 40 0 40 C0 26.8 0 13.6 0 0 Z " fill="#DFAE71" transform="translate(192,99)"/>
<path d="M0 0 C9.57 0 19.14 0 29 0 C29 9.24 29 18.48 29 28 C8.54 28 -11.92 28 -33 28 C-33 20.08 -33 12.16 -33 4 C-45.21 4 -57.42 4 -70 4 C-70 11.92 -70 19.84 -70 28 C-77.59 28 -85.18 28 -93 28 C-93 23.38 -93 18.76 -93 14 C-111.81 14 -130.62 14 -150 14 C-150 13.67 -150 13.34 -150 13 C-130.53 13 -111.06 13 -91 13 C-90.505 19.435 -90.505 19.435 -90 26 C-84.06 26 -78.12 26 -72 26 C-72 22.37 -72 18.74 -72 15 C-72.99 15 -73.98 15 -75 15 C-75 11.04 -75 7.08 -75 3 C-71.63360724 1.31680362 -67.82759311 1.83683152 -64.125 1.83203125 C-63.24473145 1.82870285 -62.36446289 1.82537445 -61.45751953 1.82194519 C-59.59473189 1.81687833 -57.73193515 1.81453679 -55.86914062 1.81469727 C-53.01156774 1.81250886 -50.15437963 1.79434547 -47.296875 1.77539062 C-45.48958466 1.7724571 -43.68229248 1.77047203 -41.875 1.76953125 C-40.58746826 1.75875298 -40.58746826 1.75875298 -39.27392578 1.74775696 C-33.22882579 1.77117421 -33.22882579 1.77117421 -31 4 C-31 11.26 -31 18.52 -31 26 C-11.86 26 7.28 26 27 26 C27 17.75 27 9.5 27 1 C18.09 1 9.18 1 0 1 C0 0.67 0 0.34 0 0 Z " fill="#D8A970" transform="translate(454,185)"/>
<path d="M0 0 C9.9 0 19.8 0 30 0 C30 19.47 30 38.94 30 59 C39.24 59 48.48 59 58 59 C58 100.58 58 142.16 58 185 C57.67 185 57.34 185 57 185 C57 143.75 57 102.5 57 60 C48.09 60 39.18 60 30 60 C30 96.96 30 133.92 30 172 C20.1 172 10.2 172 0 172 C0 171.67 0 171.34 0 171 C9.57 171 19.14 171 29 171 C29 134.37 29 97.74 29 60 C19.43 60 9.86 60 0 60 C0 40.2 0 20.4 0 0 Z M1 1 C1 20.14 1 39.28 1 59 C10.24 59 19.48 59 29 59 C29 39.86 29 20.72 29 1 C19.76 1 10.52 1 1 1 Z " fill="#3F5772" transform="translate(511,60)"/>
<path d="M0 0 C0.66 0 1.32 0 2 0 C2 7.92 2 15.84 2 24 C-114.16 24 -230.32 24 -350 24 C-350 23.67 -350 23.34 -350 23 C-349.26478172 22.99826375 -348.52956344 22.9965275 -347.77206582 22.99473864 C-304.23261752 22.89179273 -260.69318463 22.78369807 -217.15376593 22.66888306 C-211.93022882 22.65511287 -206.70669159 22.64138587 -201.4831543 22.62768555 C-199.92323378 22.62359309 -199.92323378 22.62359309 -198.33179972 22.61941796 C-181.47559811 22.57529872 -164.61938978 22.53468034 -147.7631764 22.49534739 C-130.47735191 22.45493436 -113.19153993 22.41077855 -95.90573388 22.36312145 C-85.23267302 22.33381452 -74.55961312 22.30745471 -63.88653598 22.28482103 C-56.57548548 22.26903779 -49.2644503 22.24963119 -41.95341679 22.22733159 C-37.73036522 22.2145591 -33.50732548 22.20342598 -29.2842598 22.19658089 C-25.4222492 22.1902859 -21.56027936 22.17946754 -17.6982911 22.1649667 C-16.29717471 22.16051951 -14.89605176 22.15776908 -13.49492862 22.15683801 C-11.59793949 22.15533557 -9.70095903 22.14718999 -7.80398846 22.1386652 C-6.2199851 22.13467814 -6.2199851 22.13467814 -4.60398167 22.13061053 C-1.8858587 22.11101202 -1.8858587 22.11101202 1 21 C0.67 14.07 0.34 7.14 0 0 Z " fill="#1B2338" transform="translate(508,302)"/>
<path d="M0 0 C1.07461739 0.00539291 1.07461739 0.00539291 2.17094421 0.01089478 C2.92211517 0.01074875 3.67328613 0.01060272 4.44721985 0.01045227 C6.94166404 0.01115153 9.43603448 0.01894452 11.9304657 0.02676392 C13.65539509 0.02862805 15.38032501 0.03005197 17.10525513 0.03105164 C21.65418448 0.03487719 26.20308211 0.04470779 30.7519989 0.05575562 C36.20517572 0.06776335 41.65836313 0.0723718 47.11154938 0.07820892 C55.40407483 0.08791953 63.69653061 0.10707581 71.98905945 0.12442017 C71.98905945 11.34442017 71.98905945 22.56442017 71.98905945 34.12442017 C46.24905945 34.12442017 20.50905945 34.12442017 -6.01094055 34.12442017 C-6.01094055 0.01272675 -6.01094055 0.01272675 0 0 Z M-4.01094055 4.12442017 C-4.01094055 13.69442017 -4.01094055 23.26442017 -4.01094055 33.12442017 C20.40905945 33.12442017 44.82905945 33.12442017 69.98905945 33.12442017 C69.98905945 22.89442017 69.98905945 12.66442017 69.98905945 2.12442017 C60.63597067 2.07928983 51.28295385 2.04257366 41.92978096 2.02079582 C37.58703196 2.01034516 33.24436112 1.99616269 28.9016571 1.97354126 C24.7130697 1.95185843 20.52455761 1.93986121 16.33591843 1.93466568 C14.73547555 1.9309617 13.13503694 1.92372903 11.53462601 1.91296005 C9.29815413 1.89850553 7.06199607 1.89643966 4.82548523 1.89736938 C3.55085419 1.89292816 2.27622314 1.88848694 0.96296692 1.88391113 C-2.12918836 1.8107974 -2.12918836 1.8107974 -4.01094055 4.12442017 Z " fill="#DC5852" transform="translate(110.01094055175781,347.8755798339844)"/>
<path d="M0 0 C0 0.33 0 0.66 0 1 C-14.85 1 -29.7 1 -45 1 C-45 9.91 -45 18.82 -45 28 C-45.33 28 -45.66 28 -46 28 C-46 19.09 -46 10.18 -46 1 C-131.47 1 -216.94 1 -305 1 C-305 0.67 -305 0.34 -305 0 C-272.78796126 -0.15142596 -240.57590149 -0.29654332 -208.36379715 -0.4332476 C-204.5325703 -0.44951225 -200.70134368 -0.46582889 -196.87011719 -0.48217773 C-196.10761424 -0.48543066 -195.3451113 -0.48868358 -194.5595022 -0.49203508 C-182.32679435 -0.54434426 -170.09410939 -0.60083353 -157.86142795 -0.6589582 C-145.24350512 -0.71881691 -132.62556758 -0.77397394 -120.00760615 -0.82505554 C-112.94816125 -0.85376169 -105.88873793 -0.88443555 -98.82932663 -0.92053413 C-65.86844725 -1.08791908 -32.94917751 -0.94947099 0 0 Z " fill="#5B84A5" transform="translate(498,31)"/>
<path d="M0 0 C16.17 0 32.34 0 49 0 C49 8.91 49 17.82 49 27 C58.24 27 67.48 27 77 27 C77 27.33 77 27.66 77 28 C67.76 28 58.52 28 49 28 C49 62.98 49 97.96 49 134 C40.75 134 32.5 134 24 134 C24 133.67 24 133.34 24 133 C31.92 133 39.84 133 48 133 C48 124.42 48 115.84 48 107 C32.16 107 16.32 107 0 107 C0 106.67 0 106.34 0 106 C15.84 106 31.68 106 48 106 C48 80.26 48 54.52 48 28 C32.16 28 16.32 28 0 28 C0 27.67 0 27.34 0 27 C15.84 27 31.68 27 48 27 C48 18.42 48 9.84 48 1 C32.16 1 16.32 1 0 1 C0 0.67 0 0.34 0 0 Z " fill="#767E8C" transform="translate(569,299)"/>
<path d="M0 0 C25.41 0 50.82 0 77 0 C77 22.77 77 45.54 77 69 C69.08 69 61.16 69 53 69 C53 73.62 53 78.24 53 83 C43.76 83 34.52 83 25 83 C25 82.67 25 82.34 25 82 C33.91 82 42.82 82 52 82 C52 77.38 52 72.76 52 68 C59.28010989 65.5732967 67.32609038 67 75 67 C75.33 45.55 75.66 24.1 76 2 C57.34873979 2.03936032 57.34873979 2.03936032 38.69750977 2.09008789 C25.76216776 2.11300858 12.89852716 2.05631923 0 1 C0 0.67 0 0.34 0 0 Z " fill="#D3E9EF" transform="translate(284,482)"/>
<path d="M0 0 C1.26692657 0.16173675 2.53385313 0.32347349 3.83917141 0.49011135 C9.09352263 1.07044934 14.29113149 1.15275999 19.57325745 1.15821838 C21.11612432 1.16562535 21.11612432 1.16562535 22.69016021 1.17318195 C26.1170877 1.18847026 29.54399657 1.19689396 32.97094727 1.20532227 C35.43529929 1.21490761 37.8996497 1.22491807 40.36399841 1.23532104 C45.65951051 1.25672221 50.9550202 1.27518005 56.25055122 1.29092598 C63.90687637 1.31369673 71.56317454 1.3418293 79.21947669 1.37124526 C91.64313202 1.41883319 104.06679842 1.46212103 116.49047852 1.50268555 C128.55461488 1.54208537 140.61874142 1.58352225 152.68286133 1.62768555 C153.42724571 1.63040982 154.17163009 1.63313409 154.93857158 1.63594092 C158.67315381 1.64962113 162.40773588 1.66334126 166.14231789 1.67708123 C197.0948583 1.79090768 228.04741933 1.89767544 259 2 C259 2.33 259 2.66 259 3 C173.53 3 88.06 3 0 3 C0 2.01 0 1.02 0 0 Z " fill="#0E2649" transform="translate(193,28)"/>
<path d="M0 0 C0.8850119 0.00141495 1.7700238 0.0028299 2.68185425 0.00428772 C5.51449941 0.00989485 8.34706614 0.02244854 11.1796875 0.03515625 C13.09765511 0.04017033 15.01562396 0.0447334 16.93359375 0.04882812 C21.64065532 0.05986659 26.3476581 0.077136 31.0546875 0.09765625 C31.0546875 0.42765625 31.0546875 0.75765625 31.0546875 1.09765625 C18.8446875 1.09765625 6.6346875 1.09765625 -5.9453125 1.09765625 C-5.9453125 9.34765625 -5.9453125 17.59765625 -5.9453125 26.09765625 C-13.5353125 26.09765625 -21.1253125 26.09765625 -28.9453125 26.09765625 C-28.9453125 21.47765625 -28.9453125 16.85765625 -28.9453125 12.09765625 C-47.7553125 12.09765625 -66.5653125 12.09765625 -85.9453125 12.09765625 C-85.9453125 11.76765625 -85.9453125 11.43765625 -85.9453125 11.09765625 C-66.4753125 11.09765625 -47.0053125 11.09765625 -26.9453125 11.09765625 C-26.4503125 17.53265625 -26.4503125 17.53265625 -25.9453125 24.09765625 C-20.0053125 24.09765625 -14.0653125 24.09765625 -7.9453125 24.09765625 C-7.9453125 20.46765625 -7.9453125 16.83765625 -7.9453125 13.09765625 C-8.9353125 13.09765625 -9.9253125 13.09765625 -10.9453125 13.09765625 C-10.9453125 9.13765625 -10.9453125 5.17765625 -10.9453125 1.09765625 C-7.56138242 -0.59430879 -3.72053459 -0.02220924 0 0 Z " fill="#E1B16D" transform="translate(389.9453125,186.90234375)"/>
<path d="M0 0 C22.44 0 44.88 0 68 0 C68 0.33 68 0.66 68 1 C46.22 1.33 24.44 1.66 2 2 C1.91932477 19.52896154 1.91932477 19.52896154 3 37 C4.60681641 37.09087891 4.60681641 37.09087891 6.24609375 37.18359375 C7.64324391 37.26798537 9.04037857 37.35263406 10.4375 37.4375 C11.14455078 37.47681641 11.85160156 37.51613281 12.58007812 37.55664062 C17.88671875 37.88671875 17.88671875 37.88671875 19 39 C19.08713831 40.70772358 19.10700007 42.41898649 19.09765625 44.12890625 C19.09443359 45.16337891 19.09121094 46.19785156 19.08789062 47.26367188 C19.07951172 48.35228516 19.07113281 49.44089844 19.0625 50.5625 C19.05798828 51.65498047 19.05347656 52.74746094 19.04882812 53.87304688 C19.03699826 56.58208495 19.02051543 59.29101599 19 62 C18.67 62 18.34 62 18 62 C18 54.74 18 47.48 18 40 C12.06 40 6.12 40 0 40 C0 26.8 0 13.6 0 0 Z " fill="#DBA664" transform="translate(192,99)"/>
<path d="M0 0 C9.57 0 19.14 0 29 0 C29 22.77 29 45.54 29 69 C37.25 69 45.5 69 54 69 C54 73.62 54 78.24 54 83 C52 81 52 81 51.8046875 78.6171875 C51.82789063 77.71226562 51.85109375 76.80734375 51.875 75.875 C51.89304687 74.96492187 51.91109375 74.05484375 51.9296875 73.1171875 C51.95289063 72.41851563 51.97609375 71.71984375 52 71 C51.01 71.33 50.02 71.66 49 72 C47.45569729 72.02687261 45.90979922 71.99114738 44.3671875 71.9140625 C43.47902344 71.87023437 42.59085937 71.82640625 41.67578125 71.78125 C40.28939453 71.70390625 40.28939453 71.70390625 38.875 71.625 C37.94300781 71.58117187 37.01101563 71.53734375 36.05078125 71.4921875 C29.12950029 71.12950029 29.12950029 71.12950029 28 70 C27.90574405 67.85256451 27.88257352 65.70198974 27.88647461 63.55249023 C27.88632858 62.87934784 27.88618256 62.20620544 27.8860321 61.51266479 C27.88673122 59.27794216 27.89452348 57.0433019 27.90234375 54.80859375 C27.90420794 53.26302638 27.90563184 51.71745843 27.90663147 50.17189026 C27.9104566 46.09642923 27.92028683 42.02100363 27.93133545 37.94555664 C27.94154968 33.78988118 27.94612911 29.63420001 27.95117188 25.47851562 C27.96190911 17.31899232 27.97950586 9.15950464 28 1 C18.76 1 9.52 1 0 1 C0 0.67 0 0.34 0 0 Z " fill="#488CC8" transform="translate(255,482)"/>
<path d="M0 0 C19.8 0 39.6 0 60 0 C60 4.62 60 9.24 60 14 C59.34 14 58.68 14 58 14 C58 10.37 58 6.74 58 3 C39.52 2.67 21.04 2.34 2 2 C2 5.96 2 9.92 2 14 C1.34 14 0.68 14 0 14 C0 9.38 0 4.76 0 0 Z " fill="#FEECCA" transform="translate(301,199)"/>
<path d="M0 0 C5.94 0 11.88 0 18 0 C18 0.33 18 0.66 18 1 C12.39 1 6.78 1 1 1 C1 7.6 1 14.2 1 21 C6.46182382 20.51379308 6.46182382 20.51379308 11.91918945 19.98144531 C12.60198975 19.93084961 13.28479004 19.88025391 13.98828125 19.828125 C14.68477783 19.7652832 15.38127441 19.70244141 16.09887695 19.63769531 C18 20 18 20 19.74609375 21.71289062 C21.20660473 24.37684446 21.2861689 25.7597865 21.07421875 28.765625 C21.02612061 29.56774414 20.97802246 30.36986328 20.9284668 31.19628906 C20.84894775 32.20401367 20.76942871 33.21173828 20.6875 34.25 C20.460625 37.4675 20.23375 40.685 20 44 C28.91 44 37.82 44 47 44 C47 44.66 47 45.32 47 46 C37.43 46 27.86 46 18 46 C18 38.08 18 30.16 18 22 C12.06 22 6.12 22 0 22 C0 14.74 0 7.48 0 0 Z " fill="#3B2F29" transform="translate(435,139)"/>
<path d="M0 0 C2 2 2 2 2.22705078 4.06298828 C2.21657715 4.89040527 2.20610352 5.71782227 2.1953125 6.5703125 C2.19031738 7.37742676 2.18532227 8.18454102 2.18017578 9.01611328 C2.16196777 10.0420459 2.14375977 11.06797852 2.125 12.125 C2.08375 15.38375 2.0425 18.6425 2 22 C13.88 22 25.76 22 38 22 C38 18.37 38 14.74 38 11 C38.33 11 38.66 11 39 11 C39 15.29 39 19.58 39 24 C26.46 24 13.92 24 1 24 C1 34.23 1 44.46 1 55 C0.67 55 0.34 55 0 55 C0 36.85 0 18.7 0 0 Z " fill="#D2B07D" transform="translate(262,189)"/>
<path d="M0 0 C15.51 0 31.02 0 47 0 C47 8.58 47 17.16 47 26 C31.49 26 15.98 26 0 26 C0 25.34 0 24.68 0 24 C14.52 24 29.04 24 44 24 C44.33 16.41 44.66 8.82 45 1 C30.15 1.33 15.3 1.66 0 2 C0 1.34 0 0.68 0 0 Z " fill="#172035" transform="translate(29,300)"/>
<path d="M0 0 C0.33 0 0.66 0 1 0 C1 7.26 1 14.52 1 22 C3.97 22 6.94 22 10 22 C10 22.33 10 22.66 10 23 C7.69 23.33 5.38 23.66 3 24 C2.67 52.38 2.34 80.76 2 110 C1.67 110 1.34 110 1 110 C1 81.29 1 52.58 1 23 C-8.57 23 -18.14 23 -28 23 C-28 22.67 -28 22.34 -28 22 C-18.76 22 -9.52 22 0 22 C0 14.74 0 7.48 0 0 Z " fill="#89AFC7" transform="translate(104,97)"/>
<path d="M0 0 C0.66 0 1.32 0 2 0 C2 36.63 2 73.26 2 111 C-7.24 111 -16.48 111 -26 111 C-26 110.67 -26 110.34 -26 110 C-18.08 110 -10.16 110 -2 110 C-2 109.34 -2 108.68 -2 108 C-1.01 108 -0.02 108 1 108 C0.67 72.36 0.34 36.72 0 0 Z " fill="#8CCDE9" transform="translate(538,120)"/>
<path d="M0 0 C4.95 0 9.9 0 15 0 C15 0.33 15 0.66 15 1 C13.1128125 1.12375 13.1128125 1.12375 11.1875 1.25 C7.74011551 1.6687991 7.74011551 1.6687991 5.0625 3.875 C2.53713061 8.92573877 3.29286712 12.73174811 3.94140625 18.1875 C4 21 4 21 2 24 C1.63112811 26.90644244 1.63112811 26.90644244 1.5859375 30.19921875 C1.54726563 31.40771484 1.50859375 32.61621094 1.46875 33.86132812 C1.4378125 35.12396484 1.406875 36.38660156 1.375 37.6875 C1.33632813 38.96173828 1.29765625 40.23597656 1.2578125 41.54882812 C1.16342314 44.69907292 1.0778417 47.84930991 1 51 C3.64 51.33 6.28 51.66 9 52 C9 52.33 9 52.66 9 53 C6.03 53 3.06 53 0 53 C0 35.51 0 18.02 0 0 Z " fill="#27252F" transform="translate(385,190)"/>
<path d="M0 0 C1.28117706 0.00007553 2.56235413 0.00015106 3.88235474 0.00022888 C5.28599079 0.00533591 6.68962645 0.01055191 8.09326172 0.01586914 C9.52529857 0.01773394 10.95733606 0.01915755 12.38937378 0.02015686 C16.16068276 0.0239772 19.93195329 0.03380337 23.70324707 0.04486084 C27.55069458 0.05508534 31.39814829 0.05965671 35.24560547 0.06469727 C42.79640628 0.07542607 50.34716747 0.09301896 57.89794922 0.11352539 C57.89794922 8.69352539 57.89794922 17.27352539 57.89794922 26.11352539 C57.56794922 26.11352539 57.23794922 26.11352539 56.89794922 26.11352539 C56.89794922 18.19352539 56.89794922 10.27352539 56.89794922 2.11352539 C49.27454187 1.9779147 41.65158403 1.86786291 34.02726364 1.80265236 C30.4867951 1.77135197 26.94719515 1.72890803 23.40722656 1.66088867 C19.33634158 1.58315842 15.26636723 1.55409754 11.19482422 1.52758789 C9.92491638 1.49662018 8.65500854 1.46565247 7.34661865 1.43374634 C1.43276277 1.17234092 1.43276277 1.17234092 -3.78503418 3.40570068 C-5.58253365 6.01088934 -6.62181703 8.992006 -7.10205078 12.11352539 C-7.76205078 12.11352539 -8.42205078 12.11352539 -9.10205078 12.11352539 C-9.25589694 4.11352539 -9.25589694 4.11352539 -8.10205078 1.11352539 C-5.33354255 -0.27072872 -3.09785894 -0.00607423 0 0 Z " fill="#E5AC58" transform="translate(202.10205078125,99.886474609375)"/>
<path d="M0 0 C0.33 0 0.66 0 1 0 C1.19401633 1.81181405 1.38004375 3.62448532 1.5625 5.4375 C1.71912109 6.95150391 1.71912109 6.95150391 1.87890625 8.49609375 C1.93884766 9.73552734 1.93884766 9.73552734 2 11 C1 12 1 12 -0.76586914 12.11352539 C-1.51473389 12.10828857 -2.26359863 12.10305176 -3.03515625 12.09765625 C-3.84404297 12.09443359 -4.65292969 12.09121094 -5.48632812 12.08789062 C-6.33646484 12.07951172 -7.18660156 12.07113281 -8.0625 12.0625 C-8.91650391 12.05798828 -9.77050781 12.05347656 -10.65039062 12.04882812 C-12.76695663 12.03700373 -14.88348685 12.01906769 -17 12 C-16.99214478 13.0372522 -16.99214478 13.0372522 -16.98413086 14.09545898 C-16.963425 17.20946352 -16.95036037 20.32345361 -16.9375 23.4375 C-16.92912109 24.52611328 -16.92074219 25.61472656 -16.91210938 26.73632812 C-16.90727539 28.28803711 -16.90727539 28.28803711 -16.90234375 29.87109375 C-16.89448853 31.30859985 -16.89448853 31.30859985 -16.88647461 32.77514648 C-17 35 -17 35 -18 36 C-20.14558827 36.08775605 -22.29404421 36.10695219 -24.44140625 36.09765625 C-25.74658203 36.09443359 -27.05175781 36.09121094 -28.39648438 36.08789062 C-29.7851569 36.07953401 -31.17382877 36.07106905 -32.5625 36.0625 C-33.95507656 36.05748666 -35.34765481 36.05292347 -36.74023438 36.04882812 C-40.1601987 36.03699434 -43.58007844 36.0205088 -47 36 C-47 35.67 -47 35.34 -47 35 C-38.09 35 -29.18 35 -20 35 C-19.67 26.75 -19.34 18.5 -19 10 C-12.73 10 -6.46 10 0 10 C0 6.7 0 3.4 0 0 Z " fill="#DBA45D" transform="translate(211,151)"/>
<path d="M0 0 C0 0.33 0 0.66 0 1 C-14.85 1 -29.7 1 -45 1 C-45 9.91 -45 18.82 -45 28 C-45.33 28 -45.66 28 -46 28 C-46 19.09 -46 10.18 -46 1 C-64.15 1 -82.3 1 -101 1 C-101 0.67 -101 0.34 -101 0 C-67.29421795 -0.84702572 -33.7015507 -1.08318518 0 0 Z " fill="#556E89" transform="translate(498,31)"/>
<path d="M0 0 C0.33 0 0.66 0 1 0 C1 13.86 1 27.72 1 42 C-8.9 42 -18.8 42 -29 42 C-29 34.08 -29 26.16 -29 18 C-28.67 18 -28.34 18 -28 18 C-28 24.93 -28 31.86 -28 39 C-18.76 39 -9.52 39 0 39 C0 26.13 0 13.26 0 0 Z " fill="#8ACFEA" transform="translate(134,189)"/>
<path d="M0 0 C2.45326535 3.67989802 2.38206922 6.60983649 2.484375 10.87890625 C2.5084845 11.64677963 2.53259399 12.41465302 2.55743408 13.20579529 C2.60568352 14.82708575 2.64908543 16.44852671 2.68798828 18.07006836 C2.7498669 20.55715025 2.83290111 23.04291242 2.91796875 25.52929688 C2.9622127 27.10413136 3.00522359 28.67900107 3.046875 30.25390625 C3.07279724 30.99975479 3.09871948 31.74560333 3.12542725 32.51405334 C3.16173414 34.34281975 3.08993232 36.17308541 3 38 C1 40 1 40 -2.9140625 40.1953125 C-4.48450818 40.18386556 -6.05485698 40.15788715 -7.625 40.125 C-11.770625 40.063125 -11.770625 40.063125 -16 40 C-16 45.94 -16 51.88 -16 58 C-12.04 58 -8.08 58 -4 58 C-4 58.33 -4 58.66 -4 59 C-8.29 59 -12.58 59 -17 59 C-17 52.4 -17 45.8 -17 39 C-11.39 39 -5.78 39 0 39 C0 26.13 0 13.26 0 0 Z " fill="#242937" transform="translate(453,101)"/>
<path d="M0 0 C0.33 0 0.66 0 1 0 C1 8.91 1 17.82 1 27 C-1.8875 26.690625 -4.775 26.38125 -7.75 26.0625 C-24.10977245 24.4540881 -40.57528221 24.33375851 -57 24 C-57 23.67 -57 23.34 -57 23 C-38.19 23 -19.38 23 0 23 C0 15.41 0 7.82 0 0 Z " fill="#8BBED3" transform="translate(510,36)"/>
<path d="M0 0 C21.78 0 43.56 0 66 0 C66 6.93 66 13.86 66 21 C65.67 21 65.34 21 65 21 C65 15.39 65 9.78 65 4 C59.90555228 2.54444351 56.96072286 1.74780476 51.97290039 1.68115234 C50.83224625 1.66128265 49.6915921 1.64141296 48.51637268 1.62094116 C47.30569626 1.60938995 46.09501984 1.59783875 44.84765625 1.5859375 C43.59238632 1.56657135 42.33711639 1.5472052 41.04380798 1.5272522 C37.72798944 1.47777643 34.41227655 1.43643323 31.09631348 1.39910889 C27.70408379 1.35889729 24.31201782 1.30788379 20.91992188 1.2578125 C14.28004484 1.16197671 7.64011106 1.07786944 1 1 C1 5.95 1 10.9 1 16 C0.67 16 0.34 16 0 16 C0 10.72 0 5.44 0 0 Z " fill="#0F3052" transform="translate(386,76)"/>
<path d="M0 0 C0 0.66 0 1.32 0 2 C-23.34773904 3.48877283 -46.63664636 2.69363397 -70 2 C-70 1.67 -70 1.34 -70 1 C-61.16863001 0.71575186 -52.33710494 0.43717184 -43.50532722 0.16588497 C-39.40466127 0.03974477 -35.30407653 -0.08836854 -31.20361328 -0.22094727 C-27.24858594 -0.34875174 -23.29343018 -0.47143057 -19.33813095 -0.59051323 C-17.8269564 -0.63692028 -16.31583801 -0.68519361 -14.80478287 -0.73533821 C-12.69305159 -0.80510147 -10.58122048 -0.86830665 -8.46923828 -0.92993164 C-7.26566681 -0.96768204 -6.06209534 -1.00543243 -4.822052 -1.04432678 C-2 -1 -2 -1 0 0 Z " fill="#1B2234" transform="translate(188,454)"/>
<path d="M0 0 C-0.33 0.66 -0.66 1.32 -1 2 C-18.49 1.67 -35.98 1.34 -54 1 C-51.09446422 -1.90553578 -48.03373303 -1.37396191 -44.1328125 -1.44921875 C-43.34284882 -1.47095657 -42.55288513 -1.4926944 -41.73898315 -1.51509094 C-40.05950296 -1.55908013 -38.37989117 -1.5982634 -36.70019531 -1.63305664 C-34.16944914 -1.68656028 -31.63962314 -1.75701399 -29.109375 -1.83007812 C-7.19859059 -2.3995302 -7.19859059 -2.3995302 0 0 Z " fill="#1A2438" transform="translate(512,455)"/>
<path d="M0 0 C7.92 0 15.84 0 24 0 C24 0.66 24 1.32 24 2 C19.38 2.33 14.76 2.66 10 3 C10 2.34 10 1.68 10 1 C6.04409959 2.28299473 4.04551646 3.34318625 2 7 C1.67518931 9.82370712 1.51183195 12.43946688 1.48828125 15.265625 C1.47033005 16.05902283 1.45237885 16.85242065 1.43388367 17.66986084 C1.37983074 20.19652031 1.34590188 22.72299144 1.3125 25.25 C1.2793224 26.96617201 1.24483233 28.68231919 1.20898438 30.3984375 C1.12410745 34.59882232 1.05727279 38.79915177 1 43 C0.67 43 0.34 43 0 43 C0 28.81 0 14.62 0 0 Z " fill="#0D3353" transform="translate(136,185)"/>
<path d="M0 0 C1.32751785 0.00212242 1.32751785 0.00212242 2.68185425 0.00428772 C5.51449941 0.00989485 8.34706614 0.02244854 11.1796875 0.03515625 C13.09765511 0.04017033 15.01562396 0.0447334 16.93359375 0.04882812 C21.64065532 0.05986659 26.3476581 0.077136 31.0546875 0.09765625 C31.0546875 0.42765625 31.0546875 0.75765625 31.0546875 1.09765625 C18.8446875 1.09765625 6.6346875 1.09765625 -5.9453125 1.09765625 C-6.2753125 8.68765625 -6.6053125 16.27765625 -6.9453125 24.09765625 C-7.2753125 24.09765625 -7.6053125 24.09765625 -7.9453125 24.09765625 C-7.9453125 20.46765625 -7.9453125 16.83765625 -7.9453125 13.09765625 C-8.9353125 13.09765625 -9.9253125 13.09765625 -10.9453125 13.09765625 C-10.9453125 9.13765625 -10.9453125 5.17765625 -10.9453125 1.09765625 C-7.56138242 -0.59430879 -3.72053459 -0.02220924 0 0 Z " fill="#E6AA57" transform="translate(389.9453125,186.90234375)"/>
<path d="M0 0 C20.79 0 41.58 0 63 0 C62.67 1.32 62.34 2.64 62 4 C61.01 4 60.02 4 59 4 C59 3.34 59 2.68 59 2 C57.576875 2.2784375 57.576875 2.2784375 56.125 2.5625 C53 3 53 3 51 2 C49.43784063 1.90496308 47.87168753 1.8720533 46.30664062 1.87060547 C45.33223022 1.86745331 44.35781982 1.86430115 43.35388184 1.86105347 C42.29866333 1.8630777 41.24344482 1.86510193 40.15625 1.8671875 C39.07621704 1.86623077 37.99618408 1.86527405 36.88342285 1.86428833 C34.59692324 1.86360696 32.31042169 1.86545822 30.02392578 1.86962891 C26.51460444 1.87497774 23.00541109 1.86968242 19.49609375 1.86328125 C17.27864555 1.86394204 15.06119743 1.86522322 12.84375 1.8671875 C11.26092224 1.86415115 11.26092224 1.86415115 9.64611816 1.86105347 C8.18450256 1.86578171 8.18450256 1.86578171 6.69335938 1.87060547 C5.83335327 1.87140106 4.97334717 1.87219666 4.08728027 1.87301636 C1.93973841 1.86676641 1.93973841 1.86676641 0 3 C0 2.01 0 1.02 0 0 Z " fill="#FDFDE9" transform="translate(163,213)"/>
<path d="M0 0 C22.44 0 44.88 0 68 0 C68 0.33 68 0.66 68 1 C46.22 1.33 24.44 1.66 2 2 C1.67 5.63 1.34 9.26 1 13 C0.67 13 0.34 13 0 13 C0 8.71 0 4.42 0 0 Z " fill="#C59F6B" transform="translate(192,99)"/>
<path d="M0 0 C0.33 0 0.66 0 1 0 C1 3.3 1 6.6 1 10 C6.94 10 12.88 10 19 10 C19 17.92 19 25.84 19 34 C18.67 34 18.34 34 18 34 C16.82299952 29.37540756 16.88591588 24.92133538 16.9375 20.1875 C16.94201172 19.39923828 16.94652344 18.61097656 16.95117188 17.79882812 C16.96288688 15.86585239 16.98082002 13.93291607 17 12 C15.85660156 12.01160156 14.71320313 12.02320313 13.53515625 12.03515625 C12.04427246 12.04453288 10.55338691 12.05363321 9.0625 12.0625 C7.93038086 12.07506836 7.93038086 12.07506836 6.77539062 12.08789062 C4.85005687 12.09652441 2.92464419 12.05224333 1 12 C0 11 0 11 -0.09765625 8.49609375 C-0.08605469 7.48675781 -0.07445312 6.47742188 -0.0625 5.4375 C-0.05347656 4.42558594 -0.04445313 3.41367188 -0.03515625 2.37109375 C-0.02355469 1.58863281 -0.01195312 0.80617187 0 0 Z " fill="#C0975E" transform="translate(434,151)"/>
<path d="M0 0 C1.98 0 3.96 0 6 0 C5.51486435 1.07510078 5.51486435 1.07510078 5.01992798 2.17192078 C3.97579425 5.06711824 3.7267246 7.18833073 3.68115234 10.24926758 C3.66128265 11.26994827 3.64141296 12.29062897 3.62094116 13.34223938 C3.60938995 14.4319957 3.59783875 15.52175201 3.5859375 16.64453125 C3.56657135 17.7694548 3.5472052 18.89437836 3.5272522 20.0533905 C3.4675629 23.63968366 3.42111306 27.22600909 3.375 30.8125 C3.33681047 33.24675864 3.29775817 35.68100392 3.2578125 38.11523438 C3.16187002 44.07670405 3.07679125 50.03825453 3 56 C2.67 56 2.34 56 2 56 C2 38.18 2 20.36 2 2 C1.34 2 0.68 2 0 2 C0 1.34 0 0.68 0 0 Z " fill="#8ACDED" transform="translate(132,60)"/>
<path d="M0 0 C0.99 0 1.98 0 3 0 C3 12.54 3 25.08 3 38 C2.67 38 2.34 38 2 38 C1.97494385 37.41508789 1.9498877 36.83017578 1.92407227 36.22753906 C1.80777038 33.56815529 1.68519933 30.90909597 1.5625 28.25 C1.52318359 27.32960938 1.48386719 26.40921875 1.44335938 25.4609375 C1.40146484 24.57148437 1.35957031 23.68203125 1.31640625 22.765625 C1.27974854 21.94868164 1.24309082 21.13173828 1.20532227 20.29003906 C1.06260318 18.02011703 1.06260318 18.02011703 0.48022461 15.94824219 C-0.17561338 13.28754715 -0.01057362 10.6922178 0.03515625 7.96875 C-0.00767576 5.57015745 -0.50347434 3.3407638 -1 1 C-0.67 0.67 -0.34 0.34 0 0 Z " fill="#272122" transform="translate(188,99)"/>
<path d="M0 0 C1.32 0.33 2.64 0.66 4 1 C3.34 1 2.68 1 2 1 C2 8.59 2 16.18 2 24 C7.61 24 13.22 24 19 24 C19 24.33 19 24.66 19 25 C9.595 25.495 9.595 25.495 0 26 C0 17.42 0 8.84 0 0 Z " fill="#1B2439" transform="translate(284,258)"/>
<path d="M0 0 C8.25 0 16.5 0 25 0 C21.31422423 1.84288788 20.27877347 2.24701045 16.453125 2.1953125 C15.69161133 2.19031738 14.93009766 2.18532227 14.14550781 2.18017578 C12.71223145 2.15286377 12.71223145 2.15286377 11.25 2.125 C6.67125 2.063125 6.67125 2.063125 2 2 C2 9.92 2 17.84 2 26 C1.67 26 1.34 26 1 26 C0.67 17.42 0.34 8.84 0 0 Z " fill="#398ED4" transform="translate(229,510)"/>
<path d="M0 0 C0.99 0.33 1.98 0.66 3 1 C2.67 10.9 2.34 20.8 2 31 C-0.06257104 26.87485791 -0.23756602 25.18199862 -0.1953125 20.703125 C-0.18886719 19.49785156 -0.18242187 18.29257813 -0.17578125 17.05078125 C-0.15064453 15.16939453 -0.15064453 15.16939453 -0.125 13.25 C-0.11597656 11.98027344 -0.10695313 10.71054688 -0.09765625 9.40234375 C-0.07409005 6.26803907 -0.04118832 3.13411459 0 0 Z " fill="#23292C" transform="translate(483,186)"/>
<path d="M0 0 C0.66 0.33 1.32 0.66 2 1 C2 9.58 2 18.16 2 27 C0.35 27 -1.3 27 -3 27 C-2.01 25.515 -2.01 25.515 -1 24 C-0.63250611 21.38710506 -0.63250611 21.38710506 -0.5859375 18.45703125 C-0.54726563 17.38388672 -0.50859375 16.31074219 -0.46875 15.20507812 C-0.4378125 14.08552734 -0.406875 12.96597656 -0.375 11.8125 C-0.33632813 10.68134766 -0.29765625 9.55019531 -0.2578125 8.38476562 C-0.16347467 5.5900075 -0.07788348 2.79525722 0 0 Z " fill="#549CE0" transform="translate(361,590)"/>
<path d="M0 0 C5.94 0 11.88 0 18 0 C18 0.33 18 0.66 18 1 C16.92878906 1.06058594 15.85757813 1.12117188 14.75390625 1.18359375 C13.35675609 1.26798537 11.95962143 1.35263406 10.5625 1.4375 C9.50192383 1.49647461 9.50192383 1.49647461 8.41992188 1.55664062 C4.91309581 1.47624438 4.91309581 1.47624438 2 3 C1.84141158 5.14386657 1.74870702 7.29266838 1.68359375 9.44140625 C1.64169922 10.74658203 1.59980469 12.05175781 1.55664062 13.39648438 C1.51682392 14.7851533 1.47711175 16.17382522 1.4375 17.5625 C1.39432011 18.95509183 1.350706 20.34767028 1.30664062 21.74023438 C1.20014124 25.16004801 1.09813077 28.57993763 1 32 C0.67 32 0.34 32 0 32 C0 21.44 0 10.88 0 0 Z " fill="#C53231" transform="translate(105,349)"/>
<path d="M0 0 C0.99 0 1.98 0 3 0 C3 0.66 3 1.32 3 2 C6.465 1.505 6.465 1.505 10 1 C10 0.67 10 0.34 10 0 C13.63 0 17.26 0 21 0 C21 0.99 21 1.98 21 3 C12.75 3 4.5 3 -4 3 C-2.68 2.67 -1.36 2.34 0 2 C0 1.34 0 0.68 0 0 Z " fill="#082A48" transform="translate(112,116)"/>
<path d="M0 0 C3.96 0 7.92 0 12 0 C12 0.33 12 0.66 12 1 C7.545 1.495 7.545 1.495 3 2 C2.67 7.61 2.34 13.22 2 19 C1.34 19.33 0.68 19.66 0 20 C0 13.4 0 6.8 0 0 Z " fill="#273345" transform="translate(28,406)"/>
<path d="M0 0 C6.27 0 12.54 0 19 0 C19 3.3 19 6.6 19 10 C17.0549 7.08235 16.54723683 5.37462715 16 2 C15.14728516 2.01740234 15.14728516 2.01740234 14.27734375 2.03515625 C9.39329516 2.09223194 4.81496035 1.81956772 0 1 C0 0.67 0 0.34 0 0 Z " fill="#348ADD" transform="translate(264,483)"/>
<path d="M0 0 C0.33 0 0.66 0 1 0 C1.06058594 0.63808594 1.12117188 1.27617188 1.18359375 1.93359375 C1.26738281 2.75988281 1.35117187 3.58617187 1.4375 4.4375 C1.51871094 5.26121094 1.59992188 6.08492187 1.68359375 6.93359375 C1.78930815 8.98662025 1.78930815 8.98662025 3 10 C4.77869726 10.15764405 6.56318476 10.25100677 8.34765625 10.31640625 C9.42724609 10.35830078 10.50683594 10.40019531 11.61914062 10.44335938 C13.32360352 10.50233398 13.32360352 10.50233398 15.0625 10.5625 C16.20267578 10.60568359 17.34285156 10.64886719 18.51757812 10.69335938 C21.34492195 10.79982839 24.17235738 10.90184207 27 11 C27 11.33 27 11.66 27 12 C18.09 12 9.18 12 0 12 C0 8.04 0 4.08 0 0 Z " fill="#EBFEFF" transform="translate(309,552)"/>
<path d="M0 0 C0.87914062 0.00451172 1.75828125 0.00902344 2.6640625 0.01367188 C4.81773803 0.02537663 6.97137817 0.04330931 9.125 0.0625 C9.125 0.7225 9.125 1.3825 9.125 2.0625 C-0.55346426 2.70467298 -10.16881339 3.23081537 -19.875 3.0625 C-13.68329383 -0.50963817 -6.92212121 -0.06776173 0 0 Z " fill="#8ECDED" transform="translate(181.875,95.9375)"/>
<path d="M0 0 C6.27 0 12.54 0 19 0 C19 0.66 19 1.32 19 2 C14.38 2.33 9.76 2.66 5 3 C5 2.34 5 1.68 5 1 C3.35 1 1.7 1 0 1 C0 0.67 0 0.34 0 0 Z " fill="#092B4A" transform="translate(141,185)"/>
<path d="M0 0 C8.25 0 16.5 0 25 0 C24.67 0.99 24.34 1.98 24 3 C15.99305886 2.4017071 7.99394289 1.7529365 0 1 C0 0.67 0 0.34 0 0 Z " fill="#0D2D4B" transform="translate(483,185)"/>
<path d="M0 0 C0.33 0 0.66 0 1 0 C1.19401633 1.81181405 1.38004375 3.62448532 1.5625 5.4375 C1.66691406 6.44683594 1.77132812 7.45617187 1.87890625 8.49609375 C1.91886719 9.32238281 1.95882812 10.14867187 2 11 C1 12 1 12 -0.85766602 12.11352539 C-1.64842529 12.10828857 -2.43918457 12.10305176 -3.25390625 12.09765625 C-4.10791016 12.09443359 -4.96191406 12.09121094 -5.84179688 12.08789062 C-6.73962891 12.07951172 -7.63746094 12.07113281 -8.5625 12.0625 C-9.46419922 12.05798828 -10.36589844 12.05347656 -11.29492188 12.04882812 C-13.53001314 12.03700225 -15.76497437 12.0205222 -18 12 C-18 11.67 -18 11.34 -18 11 C-9.585 10.505 -9.585 10.505 -1 10 C-0.67 6.7 -0.34 3.4 0 0 Z " fill="#F3B25F" transform="translate(211,151)"/>
<path d="M0 0 C7.59 0 15.18 0 23 0 C22.01 1.485 22.01 1.485 21 3 C20.34644531 2.84660156 19.69289063 2.69320312 19.01953125 2.53515625 C15.24507841 1.86620406 11.51094004 1.64592703 7.6875 1.4375 C6.94693359 1.39431641 6.20636719 1.35113281 5.44335938 1.30664062 C3.62908536 1.20129568 1.8145645 1.10021684 0 1 C0 0.67 0 0.34 0 0 Z " fill="#88CDE7" transform="translate(512,120)"/>
<path d="M0 0 C0.99 0.33 1.98 0.66 3 1 C2.83628906 1.52078125 2.67257813 2.0415625 2.50390625 2.578125 C1.85941341 5.6756875 1.90588411 8.58841094 1.9375 11.75 C1.94652344 12.92046875 1.95554688 14.0909375 1.96484375 15.296875 C1.97644531 16.18890625 1.98804688 17.0809375 2 18 C0.02858559 14.52876442 -0.11948854 11.97161605 0 7.96875 C0 5.56158166 -0.50205275 3.34746559 -1 1 C-0.67 0.67 -0.34 0.34 0 0 Z " fill="#282632" transform="translate(188,99)"/>
<path d="M0 0 C1.98 0 3.96 0 6 0 C5.67 0.70125 5.34 1.4025 5 2.125 C3.90955438 5.26003116 3.84677357 7.70563182 4 11 C3.01 11.495 3.01 11.495 2 12 C2 8.7 2 5.4 2 2 C1.34 2 0.68 2 0 2 C0 1.34 0 0.68 0 0 Z " fill="#99D4F1" transform="translate(132,60)"/>
<path d="M0 0 C0.33 1.32 0.66 2.64 1 4 C-2.63 4 -6.26 4 -10 4 C-10 3.34 -10 2.68 -10 2 C-6.7 1.34 -3.4 0.68 0 0 Z " fill="#092D49" transform="translate(538,115)"/>
<path d="M0 0 C2.64 0 5.28 0 8 0 C4.25 2 4.25 2 2 2 C1.67 5.63 1.34 9.26 1 13 C0.67 13 0.34 13 0 13 C0 8.71 0 4.42 0 0 Z " fill="#C8AB76" transform="translate(192,99)"/>
<path d="M0 0 C0.33 0 0.66 0 1 0 C1.33 3.63 1.66 7.26 2 11 C1.01 11.33 0.02 11.66 -1 12 C-1.02687279 10.18757948 -1.04633715 8.37504767 -1.0625 6.5625 C-1.07410156 5.55316406 -1.08570313 4.54382813 -1.09765625 3.50390625 C-1 1 -1 1 0 0 Z " fill="#2D97ED" transform="translate(285,604)"/>
<path d="M0 0 C0.99 0 1.98 0 3 0 C3 2.64 3 5.28 3 8 C2.01 8 1.02 8 0 8 C0 5.36 0 2.72 0 0 Z " fill="#E0AD44" transform="translate(379,192)"/>
<path d="M0 0 C2.97 0 5.94 0 9 0 C9 0.33 9 0.66 9 1 C6.69 1.33 4.38 1.66 2 2 C1.67 4.64 1.34 7.28 1 10 C0.67 10 0.34 10 0 10 C0 6.7 0 3.4 0 0 Z " fill="#7FB0CA" transform="translate(105,119)"/>
<path d="M0 0 C5.94 0 11.88 0 18 0 C18 0.33 18 0.66 18 1 C16.95199219 1.06058594 15.90398437 1.12117188 14.82421875 1.18359375 C13.44529952 1.26801738 12.06639395 1.35266447 10.6875 1.4375 C9.65206055 1.49647461 9.65206055 1.49647461 8.59570312 1.55664062 C5.52838465 1.74927415 2.93031848 2.02322717 0 3 C0 2.01 0 1.02 0 0 Z " fill="#D13B36" transform="translate(105,349)"/>
<path d="M0 0 C2 2 2 2 2 5 C-0.64 5 -3.28 5 -6 5 C-5.01 4.67 -4.02 4.34 -3 4 C-2.67 3.01 -2.34 2.02 -2 1 C-1.34 0.67 -0.68 0.34 0 0 Z " fill="#EE2717" transform="translate(178,376)"/>
<path d="M0 0 C3.63 0 7.26 0 11 0 C11 0.66 11 1.32 11 2 C7.75 2.6875 7.75 2.6875 4 3 C2.68 2.01 1.36 1.02 0 0 Z " fill="#15385D" transform="translate(441,76)"/>
</svg>
